<?xml version="1.0" standalone="no"?>
<!DOCTYPE svg PUBLIC "-//W3C//DTD SVG 20010904//EN"
 "http://www.w3.org/TR/2001/REC-SVG-20010904/DTD/svg10.dtd">
<svg version="1.0" xmlns="http://www.w3.org/2000/svg"
 width="1215.000000pt" height="1215.000000pt" viewBox="0 0 1215.000000 1215.000000"
 preserveAspectRatio="xMidYMid meet">

<g transform="translate(0.000000,1215.000000) scale(0.100000,-0.100000)"
fill="#000000" stroke="none">
<path d="M6432 11124 c-39 -27 -22 -74 28 -74 14 0 32 5 40 11 12 8 11 9 -5 5
-32 -9 -48 8 -43 43 2 17 4 31 3 31 0 0 -11 -7 -23 -16z"/>
<path d="M5906 10735 c-4 -10 1 -15 14 -15 11 0 20 7 20 15 0 8 -6 15 -14 15
-8 0 -16 -7 -20 -15z"/>
<path d="M5683 10725 c-18 -8 -33 -19 -33 -25 0 -20 49 -60 73 -60 13 0 46
-11 72 -25 l49 -24 23 21 c13 12 23 30 23 41 0 16 5 18 28 14 15 -3 35 -9 45
-12 9 -4 17 -3 17 3 0 6 -17 14 -37 18 -21 3 -46 16 -56 28 l-17 21 -39 -44
c-25 -30 -40 -40 -45 -32 -4 6 -16 9 -27 6 -33 -11 -79 4 -79 26 0 22 43 43
73 35 11 -3 17 0 14 7 -5 18 -48 19 -84 2z m187 -55 c0 -5 -4 -10 -10 -10 -5
0 -10 5 -10 10 0 6 5 10 10 10 6 0 10 -4 10 -10z"/>
<path d="M6011 10694 c0 -11 3 -14 6 -6 3 7 2 16 -1 19 -3 4 -6 -2 -5 -13z"/>
<path d="M9434 10694 c-18 -15 -18 -15 0 -10 11 4 27 0 37 -10 16 -14 19 -14
19 -3 0 15 -19 39 -30 39 -3 0 -15 -7 -26 -16z"/>
<path d="M5905 10630 c3 -5 10 -10 16 -10 5 0 9 5 9 10 0 6 -7 10 -16 10 -8 0
-12 -4 -9 -10z"/>
<path d="M5997 10613 c-12 -12 -7 -22 8 -17 8 4 15 10 15 15 0 11 -14 12 -23
2z"/>
<path d="M6027 10430 c-9 -11 -17 -24 -17 -29 0 -14 40 -45 48 -36 4 4 1 10
-5 12 -7 3 -13 13 -13 24 0 29 48 26 60 -3 5 -13 9 -18 9 -11 1 7 -4 23 -11
37 -9 21 -14 24 -25 14 -11 -9 -16 -9 -22 0 -5 8 -12 6 -24 -8z"/>
<path d="M4680 10385 c5 -26 -2 -35 -27 -35 -20 0 -24 -3 -16 -11 15 -15 43
-8 57 13 8 13 7 21 -2 30 -8 7 -13 9 -12 3z"/>
<path d="M3947 10323 c-48 -34 -81 -86 -72 -113 7 -22 43 -60 58 -60 4 0 5 9
2 21 -12 37 4 89 30 101 36 16 58 -5 53 -54 -2 -21 -1 -38 3 -38 11 0 19 90
13 131 -8 48 -32 52 -87 12z"/>
<path d="M6480 10324 c-10 -11 -11 -23 -4 -42 7 -21 16 -27 38 -27 16 0 31 5
33 12 3 8 -6 11 -24 10 -22 -2 -28 2 -28 18 0 17 6 20 38 19 30 -1 35 1 26 12
-15 19 -64 18 -79 -2z"/>
<path d="M6918 10239 c-21 -12 -24 -39 -5 -39 6 1 26 12 42 25 l30 25 -25 0
c-14 0 -33 -5 -42 -11z"/>
<path d="M7095 10156 c-27 -30 -27 -31 -6 -34 37 -6 22 -22 -20 -22 -36 0 -40
-2 -29 -15 7 -8 26 -15 43 -15 17 0 39 -7 49 -17 23 -20 36 -9 20 17 -7 11 -9
20 -6 20 9 0 33 -31 44 -57 11 -26 28 -30 36 -8 7 17 -14 47 -27 39 -5 -3 -6
1 -3 9 3 8 -2 17 -10 20 -41 16 4 64 47 51 17 -5 19 -4 10 6 -6 7 -36 18 -66
25 l-55 13 -27 -32z"/>
<path d="M6900 10171 c0 -4 13 -25 30 -46 21 -27 28 -44 24 -61 -3 -12 -1 -31
5 -41 9 -16 11 -14 12 12 1 17 1 36 0 43 -1 7 5 15 14 18 24 10 18 18 -25 37
-22 9 -40 24 -40 32 0 8 -4 15 -10 15 -5 0 -10 -4 -10 -9z"/>
<path d="M3970 10151 c0 -26 54 -39 75 -18 13 13 13 16 -1 28 -11 9 -18 9 -26
1 -15 -15 -32 -16 -23 -2 3 6 -1 10 -9 10 -9 0 -16 -8 -16 -19z"/>
<path d="M6418 10138 c-10 -10 -18 -20 -18 -22 0 -9 40 -13 46 -5 3 5 18 9 35
9 26 0 33 7 27 27 -6 15 -73 8 -90 -9z"/>
<path d="M4100 10119 c6 -10 19 -21 31 -24 21 -7 22 -21 4 -70 -6 -17 -4 -17
14 4 12 13 21 31 21 40 0 26 -27 58 -54 63 -22 4 -24 3 -16 -13z"/>
<path d="M4060 10072 c0 -18 18 -42 31 -42 4 0 2 14 -4 30 -13 33 -27 40 -27
12z"/>
<path d="M6400 10071 c0 -5 5 -13 10 -16 6 -3 10 -2 10 4 0 5 -4 13 -10 16 -5
3 -10 2 -10 -4z"/>
<path d="M6496 10061 c-11 -12 -14 -21 -7 -26 15 -9 28 1 34 25 6 25 -5 26
-27 1z"/>
<path d="M7166 9973 c8 -69 12 -79 26 -65 19 19 36 14 53 -15 16 -28 16 -28
11 20 -7 56 -28 103 -34 75 -5 -25 -17 -22 -30 7 -19 41 -32 30 -26 -22z"/>
<path d="M6545 9991 c30 -7 30 -7 -12 -15 -23 -4 -47 -13 -53 -20 -8 -10 -4
-12 17 -8 16 2 33 8 38 12 6 4 23 10 39 14 23 6 27 9 15 17 -7 5 -27 8 -44 8
l-30 -1 30 -7z"/>
<path d="M6615 9962 c6 -5 26 -13 45 -17 23 -5 32 -4 25 3 -5 5 -26 13 -45 17
-23 5 -32 4 -25 -3z"/>
<path d="M7005 9960 c4 -6 11 -8 16 -5 14 9 11 15 -7 15 -8 0 -12 -5 -9 -10z"/>
<path d="M6725 9950 c-3 -5 1 -10 10 -10 9 0 13 5 10 10 -3 6 -8 10 -10 10 -2
0 -7 -4 -10 -10z"/>
<path d="M6815 9950 c-8 -12 20 -24 35 -15 5 3 10 10 10 16 0 12 -37 12 -45
-1z"/>
<path d="M6972 9924 c-32 -22 -27 -31 17 -28 55 2 70 14 40 30 -31 17 -30 17
-57 -2z"/>
<path d="M3837 9889 c-31 -40 -17 -52 18 -15 20 21 30 25 57 20 58 -11 128
-64 128 -97 0 -11 -8 -26 -17 -33 -16 -12 -16 -13 -2 -14 9 0 22 7 29 15 22
27 58 17 105 -29 25 -25 45 -39 45 -32 0 19 28 40 53 41 12 1 36 2 52 3 l30 2
-25 20 c-35 28 -48 25 -88 -17 l-34 -37 -20 28 c-11 15 -39 36 -62 47 -26 13
-52 38 -72 67 -24 37 -37 47 -60 48 -16 1 -47 5 -70 9 -38 7 -43 5 -67 -26z"/>
<path d="M7350 9890 c0 -15 7 -20 25 -20 29 0 32 8 8 26 -25 19 -33 17 -33 -6z"/>
<path d="M7514 9899 c-13 -22 13 -31 45 -15 17 9 31 19 31 21 0 10 -69 5 -76
-6z"/>
<path d="M7665 9889 c-11 -4 -18 -8 -15 -9 11 -4 70 -7 70 -4 0 11 -38 20 -55
13z"/>
<path d="M6888 9883 c6 -2 18 -2 25 0 6 3 1 5 -13 5 -14 0 -19 -2 -12 -5z"/>
<path d="M7405 9870 c-8 -13 3 -30 21 -30 8 0 14 -5 14 -11 0 -6 7 -3 16 6 9
9 13 19 9 23 -4 4 -10 1 -12 -6 -4 -9 -10 -7 -23 8 -11 13 -21 17 -25 10z"/>
<path d="M6755 9854 c-19 -15 -19 -15 10 -12 17 2 29 7 28 13 -3 16 -17 15
-38 -1z"/>
<path d="M7190 9860 c0 -5 5 -10 11 -10 5 0 7 5 4 10 -3 6 -8 10 -11 10 -2 0
-4 -4 -4 -10z"/>
<path d="M3553 9837 c-15 -12 -29 -25 -31 -29 -2 -4 -24 -4 -50 -1 -37 4 -52
1 -71 -14 -14 -11 -21 -25 -17 -31 5 -9 12 -8 23 4 12 12 27 14 54 10 25 -4
54 0 81 10 72 27 92 28 112 5 22 -24 15 -69 -12 -77 -36 -12 -98 -37 -124 -50
-14 -8 -38 -14 -53 -14 -33 0 -90 53 -81 76 4 10 1 14 -6 12 -26 -9 -19 -44
16 -77 50 -49 116 -54 192 -16 30 15 54 31 54 36 0 5 6 9 14 9 8 0 26 15 40
32 20 26 22 34 12 40 -8 4 -17 20 -20 34 -15 60 -82 81 -133 41z"/>
<path d="M7298 9853 c-10 -2 -18 -13 -18 -24 0 -16 5 -19 20 -14 19 6 70 -19
70 -35 0 -5 -19 -6 -42 -3 -40 5 -42 4 -27 -11 17 -19 119 -35 119 -19 0 6 -7
16 -15 23 -9 7 -13 21 -9 34 4 17 -2 24 -36 39 -22 9 -41 16 -43 16 -1 -1 -10
-3 -19 -6z"/>
<path d="M6890 9844 c0 -15 31 -33 47 -28 16 5 16 4 -2 -11 -17 -14 -18 -17
-5 -25 21 -14 30 -12 30 5 0 8 5 15 10 15 20 0 9 20 -20 35 -29 15 -60 20 -60
9z"/>
<path d="M3832 9821 c-10 -6 -1 -11 27 -19 46 -11 48 -10 25 12 -17 18 -32 20
-52 7z"/>
<path d="M4430 9821 c0 -5 7 -14 15 -21 8 -7 15 -19 15 -26 0 -8 5 -14 11 -14
11 0 3 37 -13 58 -12 14 -28 16 -28 3z"/>
<path d="M7523 9820 c2 -8 7 -25 11 -37 5 -14 3 -23 -3 -23 -6 0 -11 -5 -11
-11 0 -5 4 -7 10 -4 5 3 7 0 4 -8 -5 -15 24 -33 35 -21 3 4 0 9 -6 11 -7 3
-13 19 -13 37 0 18 -7 41 -16 52 -10 12 -14 14 -11 4z"/>
<path d="M7752 9798 c2 -6 15 -13 27 -15 20 -3 22 -1 11 12 -15 18 -43 20 -38
3z"/>
<path d="M4451 9715 c-18 -6 -38 -19 -43 -28 -12 -22 -68 -23 -68 -2 0 17 -16
20 -26 4 -3 -6 -19 -9 -35 -5 -15 3 -29 2 -31 -2 -2 -4 -16 -14 -33 -23 -28
-14 -30 -18 -27 -67 1 -37 -2 -52 -10 -52 -7 0 -19 -4 -27 -9 -13 -8 -13 -12
-1 -26 9 -11 26 -15 54 -13 39 3 42 6 74 68 19 37 29 66 23 68 -14 5 -14 22
-1 22 6 0 14 -10 19 -21 7 -22 8 -21 35 7 19 20 30 25 33 16 4 -10 64 -42 79
-42 2 0 4 8 4 18 0 10 5 23 12 30 9 9 8 12 -6 12 -10 0 -16 6 -13 13 7 21 88
17 142 -9 56 -26 139 -34 157 -16 9 9 2 12 -33 12 -25 0 -72 9 -105 21 -32 12
-74 21 -91 20 -18 0 -33 4 -33 9 0 12 -4 11 -49 -5z"/>
<path d="M5221 9711 c-11 -7 -10 -10 5 -13 29 -6 75 3 68 13 -7 12 -55 11 -73
0z"/>
<path d="M7485 9711 c-7 -12 12 -24 25 -16 11 7 4 25 -10 25 -5 0 -11 -4 -15
-9z"/>
<path d="M4900 9674 c-25 -13 -44 -30 -43 -37 2 -7 -11 -18 -28 -24 -36 -14
-30 -36 7 -27 14 4 34 0 48 -9 22 -15 24 -15 29 3 3 13 0 20 -10 20 -31 0 -5
25 35 34 23 6 42 13 42 18 0 4 7 8 15 8 18 0 20 -16 3 -24 -7 -2 -2 -4 12 -3
17 1 25 -3 25 -14 0 -9 8 -23 17 -32 18 -19 48 -23 48 -7 0 6 -8 10 -17 8 -12
-2 -19 4 -21 20 -2 12 -12 27 -23 33 -13 7 -18 16 -14 28 4 14 -1 20 -26 25
-43 8 -47 7 -99 -20z m60 -4 c0 -5 -4 -10 -9 -10 -5 0 -18 -3 -28 -7 -16 -6
-16 -5 -4 10 15 19 41 23 41 7z"/>
<path d="M5053 9693 c9 -2 23 -2 30 0 6 3 -1 5 -18 5 -16 0 -22 -2 -12 -5z"/>
<path d="M5325 9680 c-3 -5 -2 -10 4 -10 5 0 13 5 16 10 3 6 2 10 -4 10 -5 0
-13 -4 -16 -10z"/>
<path d="M4500 9671 c0 -5 5 -13 10 -16 6 -3 10 -2 10 4 0 5 -4 13 -10 16 -5
3 -10 2 -10 -4z"/>
<path d="M4539 9653 c-13 -16 -12 -17 4 -4 9 7 17 15 17 17 0 8 -8 3 -21 -13z"/>
<path d="M7534 9656 c-24 -19 -6 -41 25 -31 24 7 27 18 8 34 -10 8 -19 7 -33
-3z"/>
<path d="M4780 9630 c0 -5 5 -10 11 -10 5 0 7 5 4 10 -3 6 -8 10 -11 10 -2 0
-4 -4 -4 -10z"/>
<path d="M4675 9620 c-3 -5 1 -10 9 -10 8 0 18 5 21 10 3 6 -1 10 -9 10 -8 0
-18 -4 -21 -10z"/>
<path d="M5220 9620 c13 -8 13 -10 -2 -10 -9 0 -29 -11 -44 -25 -15 -14 -38
-25 -50 -25 -24 0 -34 -19 -11 -21 6 -1 23 -2 37 -2 20 -2 25 -7 24 -27 -1
-13 5 -30 12 -37 20 -20 24 -15 14 13 -15 39 -13 48 23 88 19 23 46 41 67 46
31 7 29 8 -25 9 -42 0 -56 -2 -45 -9z"/>
<path d="M4160 9599 c0 -5 5 -7 10 -4 6 3 10 8 10 11 0 2 -4 4 -10 4 -5 0 -10
-5 -10 -11z"/>
<path d="M4580 9585 c0 -10 10 -15 33 -14 17 0 25 3 17 6 -8 3 -23 10 -32 15
-13 6 -18 5 -18 -7z"/>
<path d="M4082 9540 c-13 -17 -36 -36 -52 -41 -29 -11 -43 -38 -30 -59 5 -9 9
-9 14 -1 4 6 18 11 31 11 19 0 28 10 45 47 27 61 22 85 -8 43z"/>
<path d="M4990 9540 c0 -5 7 -10 15 -10 8 0 15 5 15 10 0 6 -7 10 -15 10 -8 0
-15 -4 -15 -10z"/>
<path d="M7552 9539 c2 -7 10 -15 17 -17 8 -3 12 1 9 9 -2 7 -10 15 -17 17 -8
3 -12 -1 -9 -9z"/>
<path d="M4725 9520 c3 -5 11 -10 16 -10 6 0 7 5 4 10 -3 6 -11 10 -16 10 -6
0 -7 -4 -4 -10z"/>
<path d="M4812 9488 c4 -32 50 -36 84 -9 22 18 24 22 10 27 -9 3 -22 1 -29 -4
-8 -7 -18 -7 -27 -2 -26 17 -42 11 -38 -12z"/>
<path d="M5687 9474 c20 -18 52 -37 70 -40 27 -5 32 -10 28 -24 -3 -10 -1 -21
5 -25 5 -3 10 -15 10 -26 0 -28 75 -28 83 1 7 26 26 25 68 -3 48 -32 69 -39
85 -26 9 7 18 7 33 -1 13 -7 21 -7 21 -1 0 15 -29 28 -80 36 -25 3 -61 11 -80
18 -19 6 -39 11 -45 11 -16 1 -106 47 -150 76 -22 15 -50 29 -63 33 -19 4 -16
-1 15 -29z"/>
<path d="M7650 9491 c0 -11 -4 -21 -9 -23 -5 -1 4 -18 20 -36 16 -18 29 -30
29 -27 0 3 11 -2 25 -11 29 -19 32 -18 37 11 2 16 -2 19 -20 17 -24 -4 -52 13
-52 30 0 6 6 8 14 5 10 -4 12 0 9 14 -3 10 -12 19 -19 19 -8 0 -14 5 -14 10 0
6 -4 10 -10 10 -5 0 -10 -9 -10 -19z"/>
<path d="M7770 9506 c0 -2 7 -9 15 -16 13 -11 14 -10 9 4 -5 14 -24 23 -24 12z"/>
<path d="M7464 9447 c0 -16 6 -23 14 -19 15 5 12 34 -4 39 -7 2 -11 -6 -10
-20z"/>
<path d="M4882 9437 c-32 -14 -27 -28 7 -21 16 3 38 1 50 -5 19 -10 20 -9 12
11 -9 24 -36 30 -69 15z"/>
<path d="M5350 9446 c0 -2 7 -6 15 -10 8 -3 15 -1 15 4 0 6 -7 10 -15 10 -8 0
-15 -2 -15 -4z"/>
<path d="M7120 9422 c0 -6 -20 -23 -45 -38 -55 -32 -69 -54 -51 -79 11 -16 14
-15 25 13 8 18 24 35 41 40 26 9 50 56 35 70 -3 3 -5 0 -5 -6z"/>
<path d="M4113 9386 c1 -31 3 -33 20 -25 25 14 33 39 16 50 -27 17 -37 9 -36
-25z"/>
<path d="M4010 9373 c0 -18 36 -43 61 -42 22 1 21 2 -6 10 -16 5 -36 16 -42
26 -7 9 -13 12 -13 6z"/>
<path d="M5705 9347 c11 -9 15 -19 11 -28 -4 -8 -1 -6 7 4 8 9 19 17 26 17 6
0 11 5 11 10 0 6 -17 10 -37 10 -33 0 -35 -1 -18 -13z"/>
<path d="M7940 9339 c0 -11 4 -18 10 -14 5 3 7 12 3 20 -7 21 -13 19 -13 -6z"/>
<path d="M7155 9319 c-11 -17 1 -21 15 -4 8 9 8 15 2 15 -6 0 -14 -5 -17 -11z"/>
<path d="M2808 9278 c-3 -7 10 -28 29 -46 37 -37 46 -21 16 29 -18 30 -38 38
-45 17z"/>
<path d="M5673 9279 c14 -8 22 -8 30 0 8 8 3 11 -18 11 -26 -1 -28 -2 -12 -11z"/>
<path d="M5804 9269 c14 -11 32 -19 39 -16 6 2 -2 11 -20 20 -43 23 -51 21
-19 -4z"/>
<path d="M5748 9255 c7 -37 22 -41 22 -6 0 20 -5 31 -14 31 -9 0 -12 -8 -8
-25z"/>
<path d="M7845 9250 c-3 -5 1 -10 9 -10 9 0 16 -4 16 -10 0 -5 5 -10 10 -10 6
0 5 8 -2 20 -14 22 -24 25 -33 10z"/>
<path d="M5960 9221 c0 -16 19 -23 43 -15 21 7 21 7 2 15 -28 11 -45 11 -45 0z"/>
<path d="M6144 9206 c-17 -11 -29 -26 -27 -33 2 -6 -5 -14 -17 -18 -23 -7 -18
-24 8 -24 50 1 95 -11 107 -28 10 -14 16 -15 25 -6 16 15 4 33 -20 33 -10 0
-27 11 -38 25 -11 14 -25 25 -31 25 -20 0 -11 20 9 21 34 2 39 4 49 14 20 20
-34 13 -65 -9z"/>
<path d="M7060 9221 c0 -5 7 -12 16 -15 24 -9 28 -7 14 9 -14 17 -30 20 -30 6z"/>
<path d="M6362 9175 c13 -19 27 -35 32 -35 4 0 21 -11 38 -25 34 -29 48 -32
48 -10 0 8 -4 15 -10 15 -5 0 -20 10 -34 23 -33 30 -83 67 -90 67 -3 0 4 -16
16 -35z"/>
<path d="M7901 9203 c3 -20 -3 -23 -22 -13 -17 10 -21 8 -26 -9 -3 -12 -12
-21 -19 -21 -8 0 -14 -7 -14 -15 0 -9 6 -12 15 -9 25 10 17 -10 -15 -38 -34
-30 -38 -48 -11 -48 28 0 35 -40 10 -58 -14 -10 -18 -20 -13 -35 4 -12 6 -44
5 -70 -2 -68 15 -50 22 23 4 34 11 69 17 80 5 10 10 32 10 48 0 16 9 41 20 55
11 14 20 32 20 40 0 9 5 19 10 22 6 3 10 17 10 31 0 13 -4 24 -10 24 -5 0 -9
-3 -9 -7z"/>
<path d="M5803 9174 c-3 -8 -1 -20 6 -27 8 -8 11 -4 11 16 0 30 -7 35 -17 11z"/>
<path d="M5277 9133 c-4 -3 -7 -11 -7 -17 0 -6 5 -5 12 2 6 6 9 14 7 17 -3 3
-9 2 -12 -2z"/>
<path d="M5955 9130 c3 -5 11 -10 16 -10 6 0 7 5 4 10 -3 6 -11 10 -16 10 -6
0 -7 -4 -4 -10z"/>
<path d="M7191 9114 c0 -11 3 -14 6 -6 3 7 2 16 -1 19 -3 4 -6 -2 -5 -13z"/>
<path d="M5261 9084 c0 -11 3 -14 6 -6 3 7 2 16 -1 19 -3 4 -6 -2 -5 -13z"/>
<path d="M6048 9078 c5 -5 16 -8 23 -6 8 3 3 7 -10 11 -17 4 -21 3 -13 -5z"/>
<path d="M6265 9073 c-4 -12 1 -23 14 -32 12 -7 21 -20 21 -27 0 -8 7 -14 16
-14 24 0 114 -33 114 -42 0 -5 5 -8 10 -8 31 0 -19 44 -118 105 -9 6 -22 16
-30 23 -17 16 -19 15 -27 -5z"/>
<path d="M5860 9070 c0 -5 5 -10 11 -10 5 0 7 5 4 10 -3 6 -8 10 -11 10 -2 0
-4 -4 -4 -10z"/>
<path d="M8985 9030 c14 -15 15 -23 6 -33 -14 -18 -2 -30 16 -16 19 16 16 47
-6 59 -30 16 -36 12 -16 -10z"/>
<path d="M7655 9000 c-3 -5 -1 -10 4 -10 6 0 11 5 11 10 0 6 -2 10 -4 10 -3 0
-8 -4 -11 -10z"/>
<path d="M6620 8991 c22 -13 104 -18 108 -6 1 5 -26 11 -60 12 -43 3 -58 0
-48 -6z"/>
<path d="M7088 8993 c7 -3 16 -2 19 1 4 3 -2 6 -13 5 -11 0 -14 -3 -6 -6z"/>
<path d="M6020 8986 c0 -2 8 -10 18 -17 15 -13 16 -12 3 4 -13 16 -21 21 -21
13z"/>
<path d="M6780 8987 c0 -9 141 -77 159 -77 10 0 24 7 31 15 13 16 9 18 -25 16
-11 -1 -48 10 -82 24 -59 23 -83 30 -83 22z"/>
<path d="M7651 8964 c0 -11 3 -14 6 -6 3 7 2 16 -1 19 -3 4 -6 -2 -5 -13z"/>
<path d="M7734 8969 c-3 -6 -2 -15 4 -21 6 -6 11 -2 15 11 5 22 -7 29 -19 10z"/>
<path d="M7331 8914 c0 -11 3 -14 6 -6 3 7 2 16 -1 19 -3 4 -6 -2 -5 -13z"/>
<path d="M6188 8913 c6 -2 18 -2 25 0 6 3 1 5 -13 5 -14 0 -19 -2 -12 -5z"/>
<path d="M6690 8904 c0 -8 5 -12 10 -9 6 4 8 11 5 16 -9 14 -15 11 -15 -7z"/>
<path d="M9246 8875 c-9 -13 -16 -41 -16 -62 1 -61 32 -89 110 -94 43 -4 46
-2 62 31 33 64 15 122 -42 135 -24 6 -25 5 -22 -45 3 -30 -1 -57 -8 -65 -28
-33 -90 -4 -90 42 0 11 11 32 24 46 22 24 24 37 5 37 -3 0 -14 -11 -23 -25z"/>
<path d="M6610 8819 c35 -23 35 -23 10 -28 -14 -4 -26 -13 -26 -22 -1 -12 4
-15 19 -11 13 3 18 1 13 -6 -3 -6 -1 -14 5 -18 6 -3 14 -1 18 5 9 13 103 -16
156 -49 18 -11 38 -20 46 -20 19 0 171 -94 260 -162 42 -32 81 -58 87 -58 22
0 155 -114 295 -252 43 -43 81 -78 83 -78 26 0 -234 267 -306 315 -19 12 -44
32 -56 43 -12 11 -41 30 -65 42 -24 12 -53 30 -64 40 -11 10 -72 45 -136 78
-64 32 -132 70 -150 84 -19 14 -52 35 -74 47 -22 12 -53 30 -70 40 -16 11 -41
22 -55 26 -20 5 -18 2 10 -16z"/>
<path d="M7099 8803 c-13 -16 -12 -17 4 -4 16 13 21 21 13 21 -2 0 -10 -8 -17
-17z"/>
<path d="M7507 8798 c-3 -8 -2 -21 3 -27 11 -19 23 5 12 25 -8 14 -10 14 -15
2z"/>
<path d="M5158 8783 c7 -3 16 -2 19 1 4 3 -2 6 -13 5 -11 0 -14 -3 -6 -6z"/>
<path d="M7884 8765 c-4 -8 -12 -15 -18 -15 -7 0 -13 -13 -13 -30 0 -16 4 -30
9 -30 5 0 6 5 3 10 -3 6 -1 10 6 10 7 0 9 -8 4 -22 -4 -13 -7 -33 -7 -45 0
-15 -5 -20 -15 -16 -11 4 -13 -1 -7 -23 9 -38 11 -39 29 -24 8 6 13 22 11 34
-2 11 0 28 5 36 4 8 10 23 13 33 5 14 10 16 25 7 38 -20 71 -30 71 -21 0 12
-92 111 -102 111 -5 0 -11 -7 -14 -15z"/>
<path d="M6850 8734 c0 -8 102 -55 108 -50 7 7 7 7 -43 31 -41 19 -65 26 -65
19z"/>
<path d="M6660 8720 c0 -5 5 -10 11 -10 5 0 7 5 4 10 -3 6 -8 10 -11 10 -2 0
-4 -4 -4 -10z"/>
<path d="M4778 8703 c7 -3 16 -2 19 1 4 3 -2 6 -13 5 -11 0 -14 -3 -6 -6z"/>
<path d="M7810 8686 c0 -26 12 -46 27 -46 8 0 12 6 9 13 -3 6 -9 20 -12 30 -8
20 -24 23 -24 3z"/>
<path d="M6730 8680 c20 -13 33 -13 25 0 -3 6 -14 10 -23 10 -15 0 -15 -2 -2
-10z"/>
<path d="M5197 8623 c-75 -28 -85 -43 -13 -19 26 9 54 16 64 16 9 1 28 7 42
15 l25 14 -25 0 c-14 0 -56 -12 -93 -26z"/>
<path d="M7156 8631 c-3 -5 1 -11 9 -15 9 -3 15 0 15 9 0 16 -16 20 -24 6z"/>
<path d="M5420 8619 c-11 -7 -4 -8 25 -3 50 8 58 14 19 14 -16 0 -36 -5 -44
-11z"/>
<path d="M5360 8604 c-54 -18 -140 -58 -140 -65 0 -21 57 -2 140 45 40 23 40
33 0 20z"/>
<path d="M6890 8603 c0 -11 100 -76 106 -70 3 3 -14 18 -38 34 -60 41 -68 45
-68 36z"/>
<path d="M9180 8581 c0 -6 5 -13 10 -16 6 -3 10 1 10 9 0 9 -4 16 -10 16 -5 0
-10 -4 -10 -9z"/>
<path d="M5078 8573 c7 -3 16 -2 19 1 4 3 -2 6 -13 5 -11 0 -14 -3 -6 -6z"/>
<path d="M4125 8543 c11 -3 24 -10 28 -17 6 -7 7 -6 4 4 -2 8 -14 16 -28 17
-19 1 -20 1 -4 -4z"/>
<path d="M5378 8543 c7 -3 16 -2 19 1 4 3 -2 6 -13 5 -11 0 -14 -3 -6 -6z"/>
<path d="M9080 8534 c0 -28 17 -51 29 -39 6 7 3 18 -10 34 -17 20 -19 21 -19
5z"/>
<path d="M9196 8501 c-8 -32 2 -50 27 -51 10 0 9 24 -2 36 -5 5 -11 18 -13 29
-3 15 -6 12 -12 -14z"/>
<path d="M3694 8513 c10 -10 46 -11 46 -1 0 4 -12 8 -27 8 -14 0 -23 -3 -19
-7z"/>
<path d="M3349 8473 c-13 -15 -11 -16 11 -10 14 4 31 7 38 7 7 0 10 5 7 10
-10 16 -41 12 -56 -7z"/>
<path d="M9494 8479 c-7 -12 54 -74 64 -65 9 10 -16 54 -37 65 -14 8 -22 8
-27 0z"/>
<path d="M9120 8465 c0 -8 2 -15 4 -15 2 0 6 7 10 15 3 8 1 15 -4 15 -6 0 -10
-7 -10 -15z"/>
<path d="M9452 8471 c-11 -7 -11 -9 2 -14 10 -4 16 -1 16 8 0 17 -1 17 -18 6z"/>
<path d="M9413 8421 c-14 -19 -37 -32 -67 -40 -60 -15 -59 -25 1 -17 36 4 49
2 58 -11 10 -14 14 -8 25 36 7 29 10 54 8 56 -2 3 -14 -8 -25 -24z"/>
<path d="M4415 8421 c-3 -6 -27 -13 -53 -17 -57 -8 -73 -17 -143 -85 -33 -33
-86 -69 -132 -92 -42 -20 -77 -44 -77 -52 0 -7 -8 -16 -17 -19 -25 -7 -106 -2
-119 7 -8 4 -18 -8 -28 -33 -9 -22 -20 -40 -25 -40 -15 0 -60 40 -66 59 -3 10
-21 29 -40 42 -45 31 -72 84 -54 106 11 12 10 17 -3 24 -10 5 -24 17 -33 25
-15 15 -15 18 1 35 19 21 5 26 -27 9 -22 -12 -25 -38 -5 -65 7 -11 17 -35 20
-52 5 -19 24 -49 48 -70 22 -21 49 -56 60 -78 12 -22 28 -45 36 -51 8 -6 13
-18 10 -26 -7 -16 -83 -42 -98 -33 -13 8 -13 -5 0 -25 9 -15 31 -7 130 50 33
19 36 19 48 3 11 -16 13 -15 29 6 27 40 48 53 154 98 56 24 111 50 123 58 11
8 30 15 42 15 14 0 42 23 79 65 62 71 84 86 129 92 29 3 66 28 66 45 0 11 -47
10 -55 -1z m-523 -306 c0 -5 -5 -11 -11 -13 -6 -2 -11 4 -11 13 0 9 5 15 11
13 6 -2 11 -8 11 -13z"/>
<path d="M7851 8404 c0 -11 3 -14 6 -6 3 7 2 16 -1 19 -3 4 -6 -2 -5 -13z"/>
<path d="M9140 8413 c0 -5 7 -18 15 -29 12 -16 14 -16 15 -3 0 9 -7 22 -15 29
-8 7 -15 8 -15 3z"/>
<path d="M7895 8390 c-3 -5 -1 -10 4 -10 6 0 11 5 11 10 0 6 -2 10 -4 10 -3 0
-8 -4 -11 -10z"/>
<path d="M9057 8351 c-6 -35 -4 -46 10 -57 25 -19 28 -18 41 19 15 41 16 77 2
77 -11 0 -14 -20 -11 -57 3 -40 -18 -24 -26 20 l-9 42 -7 -44z"/>
<path d="M3338 8369 c38 -11 50 -32 31 -57 -7 -9 -2 -7 11 6 34 31 18 56 -36
59 l-39 2 33 -10z"/>
<path d="M8179 8328 c17 -27 34 -48 37 -48 10 0 -25 56 -47 75 -17 15 -15 9
10 -27z"/>
<path d="M7230 8330 c-17 -11 9 -37 96 -94 28 -19 61 -44 72 -56 11 -12 23
-17 26 -12 3 6 -15 28 -40 49 -25 21 -67 57 -93 80 -34 31 -51 39 -61 33z"/>
<path d="M9186 8308 c11 -22 13 -33 5 -36 -21 -7 -11 -22 14 -22 22 0 25 4 25
33 0 37 -15 57 -42 57 -18 0 -18 -2 -2 -32z"/>
<path d="M9392 8289 c-10 -16 -10 -24 -2 -34 9 -11 8 -22 -4 -46 -13 -25 -13
-35 -4 -47 10 -11 9 -17 -5 -27 -9 -7 -17 -17 -17 -23 0 -14 -48 -47 -56 -39
-9 9 19 45 38 50 18 5 26 27 9 27 -5 0 -35 -13 -68 -29 -45 -23 -54 -31 -40
-36 25 -10 21 -32 -10 -60 l-28 -25 35 12 c49 16 97 46 104 64 4 10 13 13 26
9 15 -5 22 0 30 19 5 14 13 26 18 26 5 0 14 11 20 25 10 22 15 24 33 14 12 -6
24 -20 26 -30 11 -41 24 -16 22 45 -2 58 -4 65 -30 80 -34 20 -49 14 -42 -14
4 -14 0 -20 -11 -20 -12 0 -16 10 -16 40 0 44 -9 50 -28 19z m28 -114 c-7 -9
-15 -13 -18 -10 -3 2 1 11 8 20 7 9 15 13 18 10 3 -2 -1 -11 -8 -20z"/>
<path d="M9250 8290 c0 -5 7 -10 16 -10 8 0 12 5 9 10 -3 6 -10 10 -16 10 -5
0 -9 -4 -9 -10z"/>
<path d="M9030 8279 c0 -5 5 -7 10 -4 6 3 10 8 10 11 0 2 -4 4 -10 4 -5 0 -10
-5 -10 -11z"/>
<path d="M7916 8267 c3 -10 9 -15 12 -12 3 3 0 11 -7 18 -10 9 -11 8 -5 -6z"/>
<path d="M8065 8206 c3 -15 13 -35 20 -43 20 -19 19 -14 -6 33 -17 33 -19 35
-14 10z"/>
<path d="M4230 8199 c0 -5 5 -7 10 -4 6 3 10 8 10 11 0 2 -4 4 -10 4 -5 0 -10
-5 -10 -11z"/>
<path d="M8270 8195 c0 -5 5 -17 10 -25 5 -8 10 -10 10 -5 0 6 -5 17 -10 25
-5 8 -10 11 -10 5z"/>
<path d="M8160 8138 c0 -4 9 -24 19 -45 53 -106 101 -211 107 -235 3 -16 11
-28 16 -28 6 0 7 8 3 18 -4 9 -14 34 -22 56 -27 74 -123 257 -123 234z"/>
<path d="M4035 8050 c-45 -50 -155 -100 -130 -59 16 25 -14 2 -49 -37 -45 -51
-42 -66 7 -35 77 47 77 11 0 -61 -31 -29 -73 -70 -92 -91 -19 -21 -51 -47 -71
-59 -37 -22 -100 -83 -100 -98 0 -18 -90 -23 -106 -7 -9 9 15 37 32 37 7 0 16
5 20 11 4 8 -3 9 -26 4 -28 -6 -32 -5 -27 9 8 21 -6 20 -26 -2 -33 -37 -18
-82 27 -82 18 0 40 -6 50 -13 17 -12 17 -14 1 -27 -21 -17 -49 -34 -91 -53
-39 -18 -52 -37 -26 -37 10 0 36 13 58 30 39 30 71 40 58 18 -5 -8 -2 -9 9 -5
24 9 21 -2 -13 -47 -17 -22 -30 -43 -30 -48 0 -5 -15 -24 -32 -42 -69 -71
-102 -116 -85 -116 8 0 47 38 47 45 0 4 18 29 41 56 58 69 88 115 95 147 4 15
11 32 16 38 4 6 6 19 2 28 -3 9 -2 16 2 16 5 0 34 23 64 52 30 28 91 83 135
121 44 39 82 74 85 77 3 4 19 15 35 24 62 35 220 165 211 174 -7 6 -78 -43
-130 -89 -62 -56 -76 -64 -76 -45 0 8 17 31 38 51 21 19 45 48 52 63 8 15 23
37 34 50 11 12 17 22 14 22 -3 0 -13 -9 -23 -20z"/>
<path d="M8596 8053 c-3 -10 -9 -24 -12 -31 -4 -9 1 -11 19 -7 18 5 30 1 45
-15 14 -15 27 -20 41 -15 21 6 29 25 11 25 -5 0 -22 14 -37 30 -30 34 -58 39
-67 13z"/>
<path d="M9180 8055 c0 -8 2 -15 4 -15 2 0 6 7 10 15 3 8 1 15 -4 15 -6 0 -10
-7 -10 -15z"/>
<path d="M9162 7971 c-11 -7 -11 -12 -1 -29 10 -16 10 -26 -1 -51 -17 -43 -30
-39 -30 9 0 45 -16 54 -26 14 -7 -28 0 -102 11 -112 4 -4 14 3 22 16 9 12 24
22 35 22 10 0 21 8 24 18 3 9 10 27 16 38 7 16 6 29 -6 53 -17 33 -23 36 -44
22z"/>
<path d="M9257 7916 c-9 -7 -17 -24 -17 -38 0 -13 -4 -28 -9 -33 -4 -6 -11
-22 -15 -36 -4 -20 -1 -29 11 -33 20 -8 32 2 14 13 -10 6 -10 10 -1 16 6 4 9
13 6 21 -3 8 -2 14 3 14 8 0 35 79 29 85 -2 2 -11 -2 -21 -9z"/>
<path d="M1950 7909 c0 -5 5 -7 10 -4 6 3 10 8 10 11 0 2 -4 4 -10 4 -5 0 -10
-5 -10 -11z"/>
<path d="M3560 7888 c-10 -18 -17 -34 -15 -36 5 -5 75 51 75 61 0 21 -42 3
-60 -25z"/>
<path d="M1990 7876 c0 -17 28 -41 37 -32 4 3 7 15 8 26 1 15 -5 20 -22 20
-13 0 -23 -6 -23 -14z"/>
<path d="M8147 7815 c-7 -70 6 -130 33 -160 10 -11 21 -30 25 -42 10 -36 25
-27 25 15 0 20 9 52 21 71 16 27 18 36 7 42 -10 7 -10 9 -1 9 9 0 6 14 -9 45
-22 46 -32 53 -43 35 -7 -11 -28 -3 -22 8 2 4 -4 14 -13 23 -16 15 -18 12 -23
-46z"/>
<path d="M8642 7858 c-7 -7 -12 -16 -12 -20 0 -15 15 -8 28 12 13 22 3 27 -16
8z"/>
<path d="M8775 7790 c-3 -5 -1 -10 4 -10 6 0 11 5 11 10 0 6 -2 10 -4 10 -3 0
-8 -4 -11 -10z"/>
<path d="M2620 7739 c-16 -30 -3 -37 17 -9 16 22 17 22 31 4 14 -18 14 -18 8
-1 -3 10 -6 21 -6 23 0 14 -41 0 -50 -17z"/>
<path d="M9651 7733 c-1 -35 11 -48 37 -38 15 6 15 8 -3 14 -11 5 -23 19 -26
32 -6 22 -7 21 -8 -8z"/>
<path d="M9284 7739 c-8 -10 -5 -22 11 -46 12 -18 25 -29 29 -26 11 12 6 41
-12 63 -15 18 -20 20 -28 9z"/>
<path d="M1860 7710 c0 -11 5 -20 10 -20 6 0 10 9 10 20 0 11 -4 20 -10 20 -5
0 -10 -9 -10 -20z"/>
<path d="M2352 7708 c-14 -14 -16 -38 -3 -38 5 0 14 7 21 15 7 9 19 14 27 11
7 -3 13 -1 13 3 0 8 -23 21 -39 21 -4 0 -12 -5 -19 -12z"/>
<path d="M9070 7701 c0 -18 18 -21 30 -6 10 13 9 15 -9 15 -11 0 -21 -4 -21
-9z"/>
<path d="M9187 7691 c-21 -12 -29 -13 -35 -4 -6 9 -12 7 -25 -7 -19 -22 -23
-50 -7 -50 6 0 10 6 10 14 0 7 12 16 28 19 29 6 70 32 62 40 -3 2 -17 -3 -33
-12z"/>
<path d="M2648 7683 c-13 -3 -18 -14 -18 -39 0 -38 13 -43 43 -17 18 17 20 17
43 -12 17 -21 22 -24 18 -10 -11 40 -60 84 -86 78z"/>
<path d="M8351 7671 c-1 -7 10 -79 24 -160 13 -80 26 -162 28 -181 3 -19 3 6
0 55 -3 76 -50 328 -52 286z"/>
<path d="M9012 7633 c4 -33 24 -41 33 -12 5 14 2 25 -6 30 -23 15 -30 10 -27
-18z"/>
<path d="M8814 7613 c-17 -17 -19 -23 -8 -27 7 -3 19 4 24 15 17 30 8 37 -16
12z"/>
<path d="M3353 7608 c-11 -13 -27 -34 -36 -47 -34 -51 -184 -85 -251 -57 -44
18 -89 9 -62 -13 9 -7 23 -11 31 -7 9 3 27 -1 41 -10 20 -14 29 -14 54 -4 38
16 60 0 60 -42 0 -28 1 -29 35 -22 29 5 34 4 29 -9 -3 -10 2 -21 15 -29 12 -7
21 -19 21 -26 0 -8 6 -12 13 -9 6 2 12 13 12 24 0 12 3 25 8 29 15 15 7 36
-12 31 -14 -3 -18 -1 -14 10 4 11 0 13 -21 7 -19 -5 -27 -2 -33 12 -7 19 40
64 68 64 27 0 79 60 79 92 0 34 -10 35 -37 6z"/>
<path d="M8917 7583 c-10 -10 -8 -43 2 -43 9 0 21 24 21 41 0 11 -14 12 -23 2z"/>
<path d="M9309 7590 c0 -3 -2 -25 -3 -48 -2 -38 0 -42 11 -26 7 10 13 25 13
33 0 15 -19 51 -21 41z"/>
<path d="M3504 7466 c-10 -8 -16 -17 -13 -20 3 -3 14 3 24 14 21 23 17 26 -11
6z"/>
<path d="M9239 7458 c-1 -2 -3 -16 -5 -33 -3 -28 -2 -29 12 -11 16 23 19 46 4
46 -5 0 -11 -1 -11 -2z"/>
<path d="M8887 7438 c-19 -15 -27 -51 -12 -57 5 -2 12 3 16 10 3 8 11 24 18
37 12 24 4 29 -22 10z"/>
<path d="M2886 7418 c-20 -28 -21 -108 -1 -134 8 -10 15 -31 15 -46 0 -30 3
-32 44 -42 25 -6 28 -5 21 11 -4 10 -7 26 -7 36 1 10 -12 37 -29 60 -25 34
-29 48 -26 89 2 26 3 48 1 48 -2 0 -10 -10 -18 -22z"/>
<path d="M8250 7381 c0 -11 5 -23 10 -26 6 -3 10 3 10 14 0 11 -4 23 -10 26
-5 3 -10 -3 -10 -14z"/>
<path d="M2138 7344 c-44 -18 -59 -50 -57 -120 1 -30 -5 -65 -15 -84 -28 -57
-15 -99 14 -45 7 14 19 25 26 25 6 0 15 7 18 16 4 10 14 14 26 11 29 -8 24 11
-10 40 -35 29 -36 39 -11 72 22 29 59 24 98 -15 14 -14 26 -24 28 -22 35 43
22 98 -30 122 -39 19 -40 19 -87 0z"/>
<path d="M3154 7325 c-8 -19 -19 -35 -25 -35 -8 0 -8 -4 1 -15 20 -24 45 1 47
46 0 21 -1 39 -4 39 -2 0 -11 -16 -19 -35z"/>
<path d="M8852 7330 c-18 -29 -15 -48 4 -22 8 12 14 27 12 32 -2 6 -9 1 -16
-10z"/>
<path d="M8550 7308 c0 -32 17 -46 26 -23 4 9 0 24 -10 33 -15 15 -16 14 -16
-10z"/>
<path d="M8931 7304 c0 -11 3 -14 6 -6 3 7 2 16 -1 19 -3 4 -6 -2 -5 -13z"/>
<path d="M8837 7254 c-3 -15 -1 -37 3 -48 7 -18 9 -15 15 17 4 23 3 43 -2 48
-7 7 -12 1 -16 -17z"/>
<path d="M3037 7211 c-20 -20 -24 -30 -15 -33 9 -3 6 -14 -13 -39 -37 -49 -42
-59 -29 -59 16 0 77 64 85 90 4 12 12 19 19 17 7 -3 18 4 25 14 28 46 -29 53
-72 10z"/>
<path d="M3146 7204 c-10 -25 1 -29 14 -5 6 12 7 21 1 21 -5 0 -12 -7 -15 -16z"/>
<path d="M3340 7180 c-25 -36 -13 -40 19 -6 13 14 18 26 13 30 -6 3 -20 -7
-32 -24z"/>
<path d="M2855 7140 c-3 -5 -1 -10 4 -10 6 0 11 5 11 10 0 6 -2 10 -4 10 -3 0
-8 -4 -11 -10z"/>
<path d="M3235 7114 c-12 -9 -31 -13 -47 -10 -25 5 -26 3 -19 -17 5 -12 11
-21 14 -19 29 12 77 46 77 53 0 12 -1 11 -25 -7z"/>
<path d="M2811 7074 c-23 -29 -26 -40 -13 -48 9 -5 46 63 39 71 -3 2 -14 -8
-26 -23z"/>
<path d="M7523 7092 l-223 -2 0 -33 c0 -32 3 -34 59 -51 66 -20 106 -55 121
-105 6 -21 6 -101 0 -215 -5 -99 -14 -298 -20 -441 -6 -143 -15 -339 -20 -435
-13 -223 -12 -221 -146 -246 -23 -4 -40 -54 -23 -65 5 -3 123 -11 262 -17 138
-7 282 -15 319 -18 l66 -6 7 31 c8 35 1 51 -23 51 -31 1 -100 38 -112 60 -7
13 -12 57 -11 99 1 73 27 645 52 1144 7 130 10 239 8 241 -8 9 -100 11 -316 8z"/>
<path d="M3113 7075 c-11 -8 -35 -37 -52 -65 -17 -27 -36 -50 -42 -50 -7 0 -9
-9 -6 -21 3 -12 -1 -27 -12 -38 -9 -9 -15 -23 -13 -31 3 -7 -5 -20 -16 -29
-18 -13 -23 -30 -27 -91 -6 -99 -11 -136 -20 -149 -3 -6 -2 -11 4 -11 13 0 33
64 33 108 0 45 13 83 50 143 15 25 28 58 28 71 0 36 37 116 60 128 10 5 31 11
47 11 16 1 21 3 11 6 -9 2 -18 11 -20 19 -3 13 -6 13 -25 -1z"/>
<path d="M8070 7026 c0 -32 2 -34 67 -57 91 -33 107 -56 111 -162 3 -65 -53
-976 -72 -1177 -5 -55 -42 -90 -98 -90 -56 0 -68 -8 -68 -46 0 -26 4 -34 18
-34 9 0 130 -7 267 -15 138 -8 277 -16 310 -17 l60 -3 3 30 c3 29 -1 32 -53
54 -30 13 -65 35 -76 49 -24 31 -24 31 11 522 32 443 61 960 55 970 -4 6 -109
10 -271 10 l-264 0 0 -34z"/>
<path d="M2845 7039 c-4 -6 -5 -12 -2 -15 2 -3 7 2 10 11 7 17 1 20 -8 4z"/>
<path d="M2914 7013 c-17 -16 -54 -84 -54 -100 0 -4 9 3 20 15 28 30 36 28 15
-4 -9 -14 -14 -32 -11 -40 9 -22 26 -7 26 23 0 25 36 94 52 101 4 2 8 8 8 13
0 15 -36 10 -56 -8z"/>
<path d="M1180 6982 c-48 -24 -80 -75 -80 -127 0 -45 22 -75 55 -75 17 0 16 2
-4 24 -27 29 -23 51 18 90 27 26 31 27 51 13 12 -8 32 -29 45 -48 l25 -32 14
34 c7 19 11 49 9 67 -6 34 11 44 35 20 17 -17 27 -1 11 18 -8 10 -22 14 -38
11 -14 -3 -37 1 -51 8 -33 19 -48 18 -90 -3z"/>
<path d="M2622 6815 c-24 -30 -37 -64 -28 -72 3 -3 10 7 16 23 6 16 19 37 27
47 9 9 14 20 11 23 -3 3 -15 -7 -26 -21z"/>
<path d="M9247 6781 c3 -11 14 -27 24 -37 18 -16 19 -16 19 9 0 16 -8 30 -19
37 -27 14 -30 13 -24 -9z"/>
<path d="M9338 6776 c-23 -17 -23 -26 2 -26 13 0 20 7 20 20 0 23 0 23 -22 6z"/>
<path d="M1335 6754 c-71 -13 -206 -38 -300 -54 -93 -16 -199 -34 -234 -41
l-63 -11 6 -31 c8 -39 15 -43 74 -46 107 -5 154 -31 171 -98 18 -70 75 -433
69 -439 -4 -3 -96 -21 -205 -39 -109 -18 -247 -43 -306 -54 -60 -12 -112 -19
-117 -16 -4 2 -10 31 -14 64 -4 33 -20 128 -36 213 -32 164 -36 218 -20 249
13 22 97 66 148 75 32 6 34 9 28 37 -3 16 -6 34 -6 40 0 5 -14 7 -33 4 -17 -3
-81 -15 -142 -25 -60 -11 -144 -25 -185 -32 -41 -7 -96 -16 -122 -22 l-48 -10
0 -146 c0 -103 6 -180 20 -257 27 -146 107 -601 131 -745 34 -207 25 -234 -90
-266 l-61 -17 0 -39 c0 -46 -1 -46 142 -18 57 11 211 38 343 61 132 23 252 44
268 46 19 4 27 11 27 27 0 40 -14 48 -99 53 -121 9 -131 21 -164 200 -47 255
-69 394 -64 399 12 13 619 116 627 107 6 -8 25 -106 76 -398 34 -194 26 -213
-107 -252 -61 -18 -64 -20 -61 -49 6 -51 -46 -55 502 41 107 19 216 37 243 41
55 7 59 12 51 52 -6 29 -6 30 -88 34 -44 3 -93 11 -107 18 -43 20 -41 11 -118
450 -17 96 -50 279 -72 405 -48 266 -53 343 -25 374 10 11 53 33 95 48 76 27
77 27 73 60 -4 31 -7 33 -41 32 -20 0 -94 -12 -166 -25z"/>
<path d="M9466 6744 c-11 -8 -29 -14 -41 -14 -11 0 -30 -7 -41 -15 -12 -8 -24
-11 -28 -8 -3 3 -6 1 -6 -5 0 -7 -5 -12 -11 -12 -6 0 -9 9 -6 19 3 13 1 18 -8
14 -37 -13 -22 -66 21 -77 20 -5 38 2 81 30 30 20 57 42 60 50 9 24 -1 33 -21
18z"/>
<path d="M2862 6723 c-6 -15 -16 -45 -22 -65 -6 -21 -16 -38 -21 -38 -6 0 -7
-14 -4 -34 4 -20 2 -36 -4 -40 -14 -9 -14 -49 0 -44 12 4 38 66 46 111 3 15
18 37 34 48 21 14 29 29 29 50 0 16 -4 29 -9 29 -5 0 -16 2 -24 6 -9 3 -18 -5
-25 -23z"/>
<path d="M9140 6726 c0 -16 -7 -27 -20 -31 -26 -8 -40 1 -40 26 0 10 -4 19 -9
19 -19 0 -21 -19 -4 -48 13 -22 29 -32 67 -42 28 -7 60 -20 71 -30 22 -20 66
-22 72 -3 3 9 -4 11 -28 6 -23 -4 -30 -3 -25 5 4 7 1 12 -7 12 -8 0 -17 7 -21
15 -3 8 -15 15 -27 15 -21 0 -21 1 -4 26 18 28 14 54 -10 54 -9 0 -15 -9 -15
-24z"/>
<path d="M9254 6695 c-4 -8 -3 -22 0 -31 7 -19 33 -12 27 7 -2 8 -4 20 -4 27
0 17 -16 15 -23 -3z"/>
<path d="M2779 6648 c-10 -24 -33 -62 -51 -85 -17 -24 -29 -46 -25 -49 3 -4
14 7 24 25 10 17 25 33 34 36 17 6 32 37 43 88 9 40 -2 33 -25 -15z"/>
<path d="M2521 6646 c-6 -7 -53 -40 -104 -72 -97 -61 -137 -96 -137 -120 0
-36 59 -5 95 50 11 16 34 35 52 42 18 8 33 20 33 28 0 7 12 19 28 25 15 6 33
21 40 32 16 25 10 36 -7 15z"/>
<path d="M5140 6576 c-367 -78 -552 -406 -428 -761 53 -152 189 -270 359 -310
84 -20 258 -19 334 1 70 18 185 86 236 141 30 32 99 134 99 147 0 6 -71 49
-73 45 -84 -126 -110 -150 -191 -184 -58 -25 -161 -24 -216 1 -58 27 -123 93
-155 158 -100 205 -57 582 76 669 48 30 131 38 163 14 20 -15 20 -22 -4 -132
-19 -87 -8 -129 41 -165 46 -33 108 -45 176 -35 65 10 118 62 128 126 18 122
-66 231 -213 275 -75 22 -247 27 -332 10z"/>
<path d="M12055 6494 c-250 -238 -248 -236 -227 -256 19 -19 21 -19 123 19 57
22 125 45 152 52 l47 14 0 123 c0 68 -3 124 -7 124 -5 0 -44 -35 -88 -76z"/>
<path d="M5930 6541 l-125 -6 -3 -36 c-3 -36 -2 -36 39 -43 23 -4 55 -16 72
-28 55 -39 57 -57 50 -380 -6 -286 -5 -296 16 -369 19 -62 31 -82 74 -124 67
-65 126 -85 253 -85 118 0 199 29 296 107 37 29 69 53 72 53 3 0 6 -33 8 -72
l3 -73 155 4 c85 2 199 7 254 10 l100 6 0 30 c0 28 -4 31 -48 42 -26 7 -59 19
-73 28 -50 33 -51 46 -40 499 8 330 7 420 -3 426 -6 4 -31 6 -53 4 -23 -2
-135 -7 -249 -10 l-208 -6 0 -33 c0 -37 12 -45 66 -45 43 0 92 -43 103 -90 4
-19 4 -167 -1 -328 -9 -331 -2 -306 -99 -368 -38 -24 -54 -29 -116 -29 -81 0
-113 16 -148 76 -18 30 -20 52 -20 204 0 94 2 276 5 405 l5 235 -130 1 c-71 0
-186 -2 -255 -5z"/>
<path d="M8970 6520 c-14 -10 -21 -22 -17 -26 4 -4 16 1 27 11 20 18 24 15 20
-19 -1 -11 3 -15 9 -12 15 10 14 66 -1 66 -7 0 -24 -9 -38 -20z"/>
<path d="M3767 6505 c-139 -29 -224 -67 -297 -132 -56 -50 -75 -95 -66 -157
12 -75 71 -116 167 -116 73 0 138 27 165 68 21 33 21 105 0 157 -24 56 -20 71
22 91 86 40 174 23 218 -43 20 -31 25 -54 40 -190 l6 -61 -38 -20 c-22 -11
-112 -47 -201 -81 -270 -102 -357 -164 -383 -273 -15 -60 -7 -165 14 -207 25
-47 99 -105 158 -124 143 -45 308 -3 438 111 34 30 55 42 58 34 9 -27 56 -74
96 -94 65 -34 206 -31 311 5 107 36 108 37 100 78 l-6 34 -58 0 c-113 0 -125
26 -136 300 -15 385 -30 463 -104 536 -71 71 -135 92 -301 95 -89 2 -159 -2
-203 -11z m263 -512 c0 -16 5 -95 10 -178 l10 -149 -28 -29 c-58 -63 -147 -83
-212 -49 -27 15 -39 31 -52 68 -47 135 5 239 162 324 91 48 110 50 110 13z"/>
<path d="M3812 5730 c0 -14 2 -19 5 -12 2 6 2 18 0 25 -3 6 -5 1 -5 -13z"/>
<path d="M8646 6456 c-9 -32 -15 -60 -13 -63 7 -7 39 95 34 110 -2 6 -12 -14
-21 -47z"/>
<path d="M2567 6483 c-5 -4 -16 -8 -24 -8 -9 0 -18 -6 -21 -13 -3 -9 3 -11 25
-6 34 8 36 10 31 24 -2 6 -7 8 -11 3z"/>
<path d="M2965 6464 c-5 -2 -104 -19 -220 -39 -280 -47 -255 -39 -255 -80 l0
-35 49 0 c26 0 61 -5 78 -10 54 -19 63 -49 104 -373 l38 -300 -20 -28 c-32
-45 -96 -95 -138 -107 -106 -32 -185 3 -215 97 -14 44 -46 271 -86 620 -11 90
-21 165 -23 167 -2 2 -98 -12 -213 -32 -115 -19 -226 -38 -247 -41 -44 -7 -51
-14 -42 -52 6 -26 10 -29 61 -33 47 -4 61 -10 91 -40 l35 -35 38 -299 c37
-290 56 -375 93 -420 79 -97 130 -119 269 -118 105 0 109 1 190 42 63 30 100
58 147 107 35 36 66 63 69 60 3 -3 9 -33 14 -67 4 -34 11 -64 13 -67 3 -2 31
0 63 5 279 50 437 78 439 79 1 1 0 18 -4 38 l-6 37 -51 0 c-64 0 -110 26 -125
72 -9 29 -78 566 -97 753 -9 91 -19 112 -49 99z"/>
<path d="M8916 6455 c-11 -8 -16 -18 -13 -22 10 -9 59 9 65 25 5 17 -28 15
-52 -3z"/>
<path d="M2433 6445 c-3 -9 -3 -18 -1 -20 6 -7 58 18 58 28 0 14 -51 7 -57 -8z"/>
<path d="M9005 6450 c-3 -5 1 -10 9 -10 8 0 18 5 21 10 3 6 -1 10 -9 10 -8 0
-18 -4 -21 -10z"/>
<path d="M9195 6430 c-109 -20 -217 -77 -250 -132 -21 -37 -22 -109 0 -145 27
-46 63 -65 139 -76 64 -9 76 -8 118 11 63 28 83 65 74 146 -3 34 -8 70 -12 82
-13 46 130 67 196 29 58 -35 72 -74 68 -202 -2 -62 -8 -117 -13 -122 -6 -5
-62 -20 -125 -31 -337 -64 -456 -106 -516 -186 -53 -69 -70 -203 -35 -279 22
-50 89 -111 149 -137 36 -16 68 -21 156 -21 126 -1 184 15 272 78 l49 35 16
-37 c22 -49 62 -87 124 -114 42 -19 68 -23 165 -23 67 -1 133 4 158 12 40 12
42 15 42 51 l0 38 -51 6 c-28 4 -62 13 -75 22 -43 28 -43 64 2 425 28 229 29
289 6 352 -37 102 -124 169 -266 204 -73 18 -321 27 -391 14z m311 -542 c-3
-24 -13 -106 -20 -182 -15 -153 -14 -151 -91 -187 -111 -52 -215 9 -215 126 0
69 14 114 51 158 36 44 64 60 174 98 107 38 109 38 101 -13z"/>
<path d="M8841 6379 c-19 -7 -22 -14 -17 -35 6 -21 4 -25 -8 -21 -17 7 -46
-27 -46 -52 0 -8 25 11 56 42 30 32 52 61 49 67 -3 5 -7 10 -8 9 -1 0 -13 -5
-26 -10z"/>
<path d="M9891 6346 c-10 -12 -9 -20 4 -40 9 -14 14 -29 12 -33 -3 -5 2 -41
11 -81 16 -68 18 -72 36 -59 15 11 17 17 7 35 -13 24 5 44 20 21 7 -12 11 -12
23 1 7 8 17 26 21 40 7 24 7 24 -12 8 -25 -23 -33 -23 -33 2 0 14 -7 20 -22
20 -21 1 -22 2 -5 14 9 7 17 22 16 32 0 11 -3 13 -6 7 -7 -18 -38 -16 -53 2
-7 8 -10 22 -6 30 7 19 2 19 -13 1z"/>
<path d="M2396 6286 c-39 -52 -35 -65 19 -58 30 3 45 1 45 -7 0 -6 5 -11 10
-11 17 0 11 35 -10 53 -11 9 -20 23 -20 31 0 29 -18 25 -44 -8z"/>
<path d="M10189 6276 c-1 -14 -2 -31 -3 -37 -1 -6 17 -17 39 -25 50 -17 92
-62 101 -109 4 -21 -6 -125 -25 -263 -48 -349 -60 -418 -72 -446 -14 -29 -55
-46 -114 -46 -38 0 -44 -3 -49 -26 -4 -15 -3 -30 1 -34 14 -13 609 -97 618
-88 3 3 8 18 11 35 5 26 3 31 -19 37 -36 9 -84 51 -91 81 -4 14 0 69 8 123 8
53 27 186 43 295 31 224 32 226 123 273 67 35 167 40 212 10 69 -46 83 -114
58 -291 -11 -71 -29 -197 -40 -280 -31 -224 -37 -235 -123 -235 -42 0 -45 -2
-51 -31 -3 -17 -6 -35 -6 -39 0 -4 46 -12 103 -19 56 -7 193 -26 305 -42 111
-17 207 -27 212 -24 6 3 10 19 10 34 0 23 -8 31 -52 52 -82 38 -85 50 -64 215
10 77 29 213 43 304 38 251 21 345 -78 434 -59 53 -119 76 -220 83 -120 9
-195 -10 -292 -73 -44 -29 -85 -50 -89 -48 -4 3 -6 17 -4 32 15 91 17 120 8
126 -5 3 -97 12 -203 21 -107 8 -218 17 -246 21 -51 5 -53 5 -54 -20z"/>
<path d="M8692 6165 c-11 -14 -23 -41 -26 -60 -4 -19 -11 -35 -15 -35 -9 0
-27 -39 -37 -85 l-7 -29 26 26 c15 15 27 32 27 38 0 6 7 22 16 35 9 13 14 30
12 36 -2 7 6 23 19 37 23 25 31 62 14 62 -5 0 -18 -11 -29 -25z"/>
<path d="M11690 6089 c0 -8 -3 -24 -6 -35 -5 -18 1 -24 40 -39 49 -19 102 -70
112 -109 3 -12 -4 -74 -16 -137 -66 -357 -102 -537 -111 -560 -14 -35 -47 -49
-114 -49 -48 0 -55 -3 -55 -19 0 -11 -2 -26 -6 -34 -4 -11 30 -21 163 -47 207
-40 424 -79 441 -80 7 0 12 15 12 40 0 22 -4 40 -9 40 -5 0 -26 15 -45 34 -47
44 -47 61 6 312 39 191 41 208 45 419 l5 220 -194 24 c-284 36 -268 35 -268
20z"/>
<path d="M3417 6053 c4 -27 4 -27 -9 -6 -8 13 -18 19 -25 15 -11 -7 -40 -239
-30 -248 10 -10 49 72 53 111 3 22 9 62 15 88 8 32 8 52 1 59 -6 6 -8 0 -5
-19z"/>
<path d="M8747 6025 c-4 -8 -2 -17 3 -20 6 -4 10 3 10 14 0 25 -6 27 -13 6z"/>
<path d="M2395 6019 c-11 -17 1 -21 15 -4 8 9 8 15 2 15 -6 0 -14 -5 -17 -11z"/>
<path d="M2406 5973 c-6 -14 -5 -15 5 -6 7 7 10 15 7 18 -3 3 -9 -2 -12 -12z"/>
<path d="M9955 5960 c-8 -25 1 -40 23 -40 13 0 14 2 3 9 -8 5 -11 16 -6 30 3
12 2 21 -4 21 -5 0 -12 -9 -16 -20z"/>
<path d="M8597 5774 c-4 -4 -7 -14 -7 -23 0 -11 3 -12 11 -4 6 6 10 16 7 23
-2 6 -7 8 -11 4z"/>
<path d="M1934 5739 c-25 -31 -25 -57 0 -86 14 -15 26 -23 26 -16 0 6 -5 15
-11 19 -8 5 -8 8 0 13 8 5 9 20 4 46 -7 30 -11 35 -19 24z"/>
<path d="M8733 5730 c-17 -10 -36 -28 -42 -38 -9 -17 -8 -19 9 -15 24 6 25 -8
4 -48 -21 -41 -14 -44 23 -11 23 20 33 40 41 80 5 28 6 52 3 52 -3 0 -20 -9
-38 -20z"/>
<path d="M9926 5702 c-9 -15 19 -57 42 -60 12 -2 22 -1 22 1 0 12 -59 67 -64
59z"/>
<path d="M8616 5673 c-6 -14 -5 -15 5 -6 7 7 10 15 7 18 -3 3 -9 -2 -12 -12z"/>
<path d="M2659 5608 c-17 -24 -18 -29 -6 -19 18 14 42 51 33 51 -3 0 -15 -15
-27 -32z"/>
<path d="M8744 5579 c-17 -22 -24 -48 -14 -54 12 -7 32 31 28 52 -3 14 -5 14
-14 2z"/>
<path d="M1941 5515 l-35 -12 41 -26 c23 -14 43 -32 46 -39 8 -18 8 42 1 70
-7 25 -6 24 -53 7z"/>
<path d="M3367 5464 c4 -27 7 -75 6 -107 -1 -46 2 -55 12 -47 13 11 25 -6 25
-37 0 -17 40 -86 46 -80 2 2 -5 22 -16 45 -12 24 -24 80 -29 132 -7 66 -15 97
-31 117 l-20 26 7 -49z"/>
<path d="M8730 5475 c0 -8 7 -15 15 -15 8 0 15 7 15 15 0 8 -7 15 -15 15 -8 0
-15 -7 -15 -15z"/>
<path d="M1976 5359 c-10 -51 -8 -65 6 -51 13 13 19 82 8 82 -4 0 -10 -14 -14
-31z"/>
<path d="M2046 5355 c4 -8 13 -15 21 -15 13 0 13 3 3 15 -7 8 -16 15 -21 15
-5 0 -6 -7 -3 -15z"/>
<path d="M2697 5364 c-11 -11 3 -24 25 -24 17 0 18 2 8 15 -13 16 -23 19 -33
9z"/>
<path d="M9264 5305 c-4 -8 1 -26 10 -40 9 -13 16 -31 16 -39 0 -8 11 -28 24
-43 l24 -28 27 25 c15 14 25 33 23 45 -4 30 -22 24 -29 -10 l-7 -30 -1 28 c0
15 -8 30 -16 33 -8 3 -20 21 -27 40 -13 35 -34 45 -44 19z"/>
<path d="M2565 5282 c-9 -8 -71 -22 -157 -37 -47 -7 -53 -18 -32 -50 19 -29
14 -72 -16 -128 -24 -44 -25 -66 -6 -111 18 -44 80 -70 128 -54 39 13 59 28
37 28 -8 0 -20 -5 -26 -11 -19 -19 -62 -2 -69 26 -3 14 -11 25 -16 25 -6 0 -8
11 -4 24 4 15 0 28 -9 36 -26 22 -16 63 31 123 27 33 42 34 50 3 6 -25 54 -66
54 -47 0 5 -4 13 -10 16 -12 7 -14 45 -2 45 4 0 13 -13 20 -29 7 -17 19 -31
26 -33 9 -2 10 -12 4 -36 -5 -18 -12 -31 -16 -28 -5 3 -14 0 -22 -5 -13 -8
-13 -10 -1 -18 10 -7 18 -5 26 6 15 21 33 9 51 -31 l13 -31 1 38 c0 21 -9 56
-21 79 -17 34 -20 55 -17 124 3 83 1 92 -17 76z m-75 -73 c0 -12 -5 -19 -12
-16 -7 2 -25 0 -40 -4 -24 -6 -28 -5 -28 13 0 15 5 19 19 15 10 -2 25 -1 32 4
22 14 29 11 29 -12z m-100 -218 c0 -6 -4 -13 -10 -16 -5 -3 -10 1 -10 9 0 9 5
16 10 16 6 0 10 -4 10 -9z"/>
<path d="M2150 5269 c0 -5 5 -7 10 -4 6 3 10 8 10 11 0 2 -4 4 -10 4 -5 0 -10
-5 -10 -11z"/>
<path d="M2240 5242 c0 -4 -10 -12 -22 -17 -29 -13 -33 -31 -8 -38 26 -7 27
-48 0 -72 -24 -21 -26 -45 -5 -45 8 0 15 8 15 19 0 10 9 30 20 44 11 14 20 28
20 32 0 4 9 18 20 32 19 24 19 26 3 39 -20 15 -43 18 -43 6z"/>
<path d="M9658 5219 c-37 -19 -50 -50 -28 -64 6 -3 10 1 10 9 0 9 4 16 9 16
12 0 25 -31 22 -52 -2 -13 5 -18 20 -18 18 0 20 3 11 12 -15 15 -15 38 -2 73
9 24 12 26 28 14 13 -11 13 -9 -2 9 -23 26 -21 26 -68 1z"/>
<path d="M2070 5195 c0 -14 5 -25 10 -25 6 0 10 11 10 25 0 14 -4 25 -10 25
-5 0 -10 -11 -10 -25z"/>
<path d="M2127 5198 c-11 -6 -15 -17 -12 -31 4 -13 1 -35 -5 -51 -17 -47 1
-51 22 -5 10 24 26 52 35 61 24 27 -5 46 -40 26z"/>
<path d="M2002 5170 c0 -14 2 -19 5 -12 2 6 2 18 0 25 -3 6 -5 1 -5 -13z"/>
<path d="M2430 5125 c-10 -12 -10 -15 3 -15 19 0 31 16 18 24 -5 3 -14 -1 -21
-9z"/>
<path d="M9875 5130 c3 -5 8 -10 11 -10 2 0 4 5 4 10 0 6 -5 10 -11 10 -5 0
-7 -4 -4 -10z"/>
<path d="M3461 5112 c-13 -25 -14 -52 -2 -52 8 0 22 61 16 68 -2 2 -8 -5 -14
-16z"/>
<path d="M9730 5091 c0 -5 8 -18 18 -30 21 -25 47 -15 35 15 -8 19 -53 32 -53
15z"/>
<path d="M9690 5057 c0 -15 4 -27 9 -27 17 0 19 15 5 35 -13 18 -14 18 -14 -8z"/>
<path d="M9808 5063 c6 -2 18 -2 25 0 6 3 1 5 -13 5 -14 0 -19 -2 -12 -5z"/>
<path d="M2095 5051 c-3 -6 2 -14 10 -19 13 -7 14 -14 6 -35 -9 -23 -8 -27 8
-27 26 0 36 60 13 78 -19 14 -29 15 -37 3z"/>
<path d="M3490 5046 c0 -9 5 -16 10 -16 6 0 10 4 10 9 0 6 -4 13 -10 16 -5 3
-10 -1 -10 -9z"/>
<path d="M9252 5035 c6 -14 15 -25 20 -25 12 0 9 12 -6 33 -19 25 -27 21 -14
-8z"/>
<path d="M3370 5020 c0 -18 4 -29 10 -25 6 3 10 15 10 25 0 10 -4 22 -10 25
-6 4 -10 -7 -10 -25z"/>
<path d="M10028 5011 c-4 -26 1 -32 35 -50 49 -26 57 -27 24 -1 -14 11 -28 34
-32 50 -8 38 -21 39 -27 1z"/>
<path d="M3265 5020 c-16 -7 -17 -9 -3 -9 9 -1 20 4 23 9 7 11 7 11 -20 0z"/>
<path d="M9675 5000 c7 -11 45 -33 45 -26 0 2 -7 12 -16 20 -17 18 -39 22 -29
6z"/>
<path d="M9950 4997 c0 -21 37 -50 51 -41 9 5 6 10 -9 15 -12 5 -22 15 -22 24
0 8 -4 15 -10 15 -5 0 -10 -6 -10 -13z"/>
<path d="M3761 4995 c0 -5 6 -19 14 -29 8 -11 15 -15 15 -10 0 6 -7 19 -15 30
-8 10 -14 15 -14 9z"/>
<path d="M9618 4963 c-29 -18 -30 -33 -6 -95 8 -21 13 -25 22 -15 7 7 15 21
19 32 6 17 5 18 -5 4 -7 -9 -19 -14 -25 -12 -15 5 -18 33 -4 33 5 0 13 9 16
20 3 11 15 20 26 20 23 0 25 15 3 24 -19 7 -14 9 -46 -11z"/>
<path d="M2086 4951 c-3 -4 -17 -6 -31 -3 -23 4 -25 2 -19 -25 4 -20 -1 -40
-15 -64 -24 -39 -28 -101 -7 -118 22 -19 42 13 27 45 -16 36 -15 39 24 54 24
9 32 17 25 24 -5 5 -10 17 -10 25 0 12 3 12 12 3 19 -19 30 -14 18 7 -14 26
-13 31 6 31 14 0 14 2 0 15 -17 17 -23 18 -30 6z"/>
<path d="M2192 4930 c-11 -18 -9 -25 15 -55 16 -19 31 -35 36 -35 4 0 7 -11 7
-25 0 -14 4 -25 8 -25 5 0 7 26 4 58 -6 88 -41 128 -70 82z"/>
<path d="M9916 4902 c-8 -14 3 -39 20 -46 17 -7 17 -5 0 29 -8 14 -17 22 -20
17z"/>
<path d="M3550 4890 c0 -3 7 -23 16 -45 l15 -40 -6 35 c-3 19 -10 39 -15 44
-6 6 -10 8 -10 6z"/>
<path d="M3615 4860 c4 -19 13 -46 20 -60 36 -69 48 -110 37 -123 -8 -10 2
-27 44 -74 38 -43 54 -69 54 -90 0 -15 4 -34 9 -41 5 -8 6 8 3 39 -4 40 -25
91 -90 218 -46 91 -81 150 -77 131z"/>
<path d="M9406 4853 c4 -15 14 -36 22 -46 15 -16 14 -17 -3 -11 -16 6 -17 4
-11 -21 7 -29 -7 -50 -52 -74 -28 -15 -42 -7 -42 24 0 13 -4 26 -9 29 -5 3 -8
0 -7 -7 0 -6 -3 -12 -9 -12 -5 0 -10 5 -10 12 0 31 -16 20 -39 -30 -31 -65
-31 -67 -7 -60 23 6 38 -14 22 -30 -17 -17 -13 -29 9 -22 11 4 34 0 50 -9 25
-12 30 -12 30 -1 0 8 9 19 19 24 14 8 19 21 18 46 -1 30 6 42 36 70 50 46 49
107 -4 135 -18 10 -19 9 -13 -17z m-60 -173 c8 0 14 -6 14 -14 0 -18 -52 -6
-58 14 -3 9 1 11 12 7 10 -4 24 -7 32 -7z"/>
<path d="M9547 4840 c-4 -17 -2 -41 4 -52 9 -18 13 -18 25 -6 12 12 12 19 -4
52 l-19 38 -6 -32z"/>
<path d="M9723 4863 c-8 -3 -11 -14 -7 -28 4 -18 1 -24 -20 -29 -14 -3 -26
-11 -26 -17 0 -13 -41 -48 -56 -49 -13 0 -26 -39 -18 -52 8 -13 24 -9 19 5 -8
23 22 50 49 43 19 -5 26 -2 26 8 0 8 14 28 30 44 39 39 41 88 3 75z"/>
<path d="M9261 4821 c-1 -42 0 -43 17 -28 10 10 26 17 36 17 9 0 14 5 11 10
-4 6 -15 8 -24 5 -12 -3 -21 2 -29 17 -9 21 -11 18 -11 -21z"/>
<path d="M2151 4829 c0 -13 -3 -37 -6 -54 l-7 -30 20 24 c18 22 20 23 29 7 11
-21 5 -68 -8 -60 -5 3 -6 -2 -3 -11 4 -10 -1 -22 -15 -31 -28 -20 -27 -34 3
-34 15 0 33 12 50 34 30 40 33 61 10 70 -9 3 -14 14 -12 24 2 10 -10 31 -29
51 -32 33 -33 33 -32 10z"/>
<path d="M10603 4795 c-35 -15 -49 -36 -61 -92 -8 -39 -30 -57 -82 -67 -47
-10 -77 -111 -31 -104 12 2 15 -4 13 -21 -2 -23 -1 -24 68 -19 56 4 77 2 105
-14 43 -23 75 -11 75 28 0 14 4 34 10 44 8 16 5 19 -23 25 -17 4 -40 14 -49
23 -10 8 -18 10 -18 4 0 -6 4 -13 9 -16 10 -7 3 -44 -10 -52 -5 -3 -32 2 -60
11 -42 14 -53 15 -60 4 -4 -7 -11 -10 -16 -6 -4 4 -2 17 5 27 7 11 12 27 12
35 0 20 10 19 26 -2 7 -10 14 -13 14 -7 0 7 12 19 26 29 22 14 28 15 35 4 6
-10 9 -5 9 16 1 57 10 75 39 73 40 -2 81 -45 81 -85 0 -18 5 -33 10 -33 6 0
10 9 10 20 0 11 5 20 10 20 13 0 13 44 -1 90 -9 31 -20 41 -58 59 -55 24 -48
24 -88 6z"/>
<path d="M9350 4730 c0 -5 5 -10 11 -10 5 0 7 5 4 10 -3 6 -8 10 -11 10 -2 0
-4 -4 -4 -10z"/>
<path d="M8930 4710 c0 -5 7 -10 16 -10 8 0 12 5 9 10 -3 6 -10 10 -16 10 -5
0 -9 -4 -9 -10z"/>
<path d="M9030 4693 c0 -18 23 -41 35 -37 9 4 22 1 30 -6 8 -6 20 -10 27 -8 7
3 -11 16 -39 30 -29 14 -53 23 -53 21z"/>
<path d="M8866 4674 c-20 -20 -14 -69 14 -117 13 -21 19 -44 16 -55 -9 -28
-115 -131 -157 -153 -46 -23 -53 -42 -32 -86 14 -30 14 -40 4 -70 -7 -19 -10
-37 -7 -41 4 -3 12 9 18 26 7 18 16 32 20 32 5 0 6 10 3 23 -8 31 34 72 64 62
17 -5 21 -2 21 14 0 11 5 23 10 26 6 3 10 21 10 39 0 19 7 39 15 46 14 11 19
7 16 -13 -1 -4 12 2 29 14 25 19 30 29 30 67 0 48 -13 80 -42 100 -16 12 -18
21 -12 58 7 48 4 52 -20 28z"/>
<path d="M9520 4674 c0 -14 3 -14 15 -4 8 7 15 14 15 16 0 2 -7 4 -15 4 -8 0
-15 -7 -15 -16z"/>
<path d="M9468 4638 c-24 -21 -27 -35 -19 -80 0 -5 7 -8 15 -8 9 0 12 7 9 20
-4 15 0 20 16 20 23 0 27 10 9 28 -8 8 -8 15 2 27 19 23 -3 18 -32 -7z"/>
<path d="M9590 4654 c0 -5 -14 -18 -30 -29 -34 -23 -38 -35 -12 -35 17 0 57
58 47 68 -3 3 -5 1 -5 -4z"/>
<path d="M1772 4620 c22 -23 34 -28 42 -20 17 17 -7 45 -42 48 l-32 3 32 -31z"/>
<path d="M2100 4627 c0 -25 23 -47 51 -47 40 0 34 24 -7 28 -16 2 -32 9 -36
15 -4 7 -8 8 -8 4z"/>
<path d="M10063 4601 c-3 -12 -10 -21 -15 -21 -5 0 -6 6 -2 13 4 6 -1 4 -12
-5 -17 -17 -17 -19 6 -50 l23 -32 -21 -14 c-12 -8 -22 -23 -22 -33 0 -16 -8
-19 -45 -19 -25 0 -45 -5 -45 -10 0 -6 11 -8 25 -4 14 3 32 1 40 -6 8 -6 41
-14 74 -17 50 -5 65 -2 98 17 21 13 39 24 40 24 1 1 4 15 8 31 7 30 7 30 -9 8
-10 -13 -26 -23 -37 -23 -10 0 -19 -4 -19 -10 0 -13 -51 -13 -86 0 -20 8 -24
14 -16 22 9 9 18 8 37 0 37 -17 55 -15 55 7 0 11 5 23 10 26 22 14 8 25 -32
25 -65 0 -76 11 -49 48 14 20 18 33 11 37 -7 4 -14 -2 -17 -14z m57 -101 c0
-5 -4 -10 -10 -10 -5 0 -10 5 -10 10 0 6 5 10 10 10 6 0 10 -4 10 -10z"/>
<path d="M10774 4578 c17 -39 42 -53 30 -17 -4 13 -7 30 -7 37 0 6 -8 12 -18
12 -16 0 -17 -3 -5 -32z"/>
<path d="M9408 4573 c7 -3 16 -2 19 1 4 3 -2 6 -13 5 -11 0 -14 -3 -6 -6z"/>
<path d="M9585 4570 c-3 -5 -1 -10 4 -10 6 0 11 5 11 10 0 6 -2 10 -4 10 -3 0
-8 -4 -11 -10z"/>
<path d="M10288 4555 c2 -14 6 -25 8 -25 2 0 4 11 4 25 0 14 -4 25 -9 25 -4 0
-6 -11 -3 -25z"/>
<path d="M2120 4518 c0 -23 3 -29 9 -19 7 10 15 6 40 -19 37 -39 37 -40 11
-33 -27 7 -25 -7 5 -35 19 -18 23 -31 20 -60 -2 -20 -4 -40 -4 -44 -1 -12 -31
-9 -31 3 0 5 -4 7 -10 4 -19 -12 -10 -24 23 -33 36 -10 49 -2 98 60 26 32 28
39 18 62 -12 27 -33 34 -44 16 -3 -5 2 -10 12 -10 16 0 16 -1 0 -17 -16 -16
-18 -16 -39 4 -17 17 -19 25 -10 36 9 11 5 18 -18 36 -17 12 -30 28 -30 36 0
15 -27 45 -41 45 -5 0 -9 -15 -9 -32z"/>
<path d="M9159 4534 c-19 -24 -59 -36 -74 -24 -9 7 -19 5 -36 -9 l-24 -19 30
-8 c22 -5 39 -2 70 16 22 12 50 28 62 34 13 6 23 14 23 19 0 13 -37 7 -51 -9z"/>
<path d="M9474 4518 c-25 -28 -47 -78 -39 -87 7 -6 44 38 45 53 0 6 10 20 22
33 16 17 18 23 6 23 -8 0 -23 -10 -34 -22z"/>
<path d="M9949 4503 c-13 -16 -12 -17 4 -4 9 7 17 15 17 17 0 8 -8 3 -21 -13z"/>
<path d="M10262 4497 c-12 -13 -22 -26 -22 -29 0 -3 23 -3 52 -1 55 4 79 13
36 13 -16 0 -28 8 -34 21 -9 20 -10 20 -32 -4z"/>
<path d="M10390 4505 c-11 -13 -9 -15 15 -15 16 0 25 5 23 12 -7 19 -24 20
-38 3z"/>
<path d="M1727 4493 c-4 -3 -7 -13 -7 -21 0 -12 3 -12 16 -1 14 11 19 10 39
-13 15 -18 26 -23 33 -16 14 14 -26 58 -53 58 -12 0 -25 -3 -28 -7z"/>
<path d="M2043 4485 c-3 -9 -23 -25 -44 -36 -22 -11 -39 -22 -39 -24 0 -9 55
7 61 18 14 21 36 -1 32 -30 -3 -19 1 -36 12 -47 24 -24 32 -11 10 15 -24 25
-10 54 26 55 28 0 27 20 -1 47 -24 21 -49 22 -57 2z"/>
<path d="M3200 4470 c0 -5 -9 -18 -21 -29 l-21 -19 26 -17 c25 -17 28 -17 46
0 18 16 20 16 53 -9 19 -14 45 -26 58 -26 l24 0 -27 -25 c-27 -25 -48 -32 -48
-17 0 18 -66 -1 -85 -24 -19 -22 -24 -23 -48 -12 -28 14 -50 58 -41 83 9 23
-14 17 -30 -7 -30 -49 -28 -73 9 -107 50 -45 90 -43 138 8 36 38 40 40 85 34
59 -7 76 9 67 59 -5 27 -14 37 -46 51 -21 9 -44 17 -49 17 -5 0 -17 11 -26 25
-16 24 -64 36 -64 15z"/>
<path d="M8990 4471 c0 -11 49 -21 55 -11 5 9 -18 20 -41 20 -8 0 -14 -4 -14
-9z"/>
<path d="M1576 4455 c-11 -30 -6 -35 15 -14 l21 21 25 -24 c14 -12 31 -35 39
-50 18 -35 49 -39 40 -5 -3 12 -6 32 -6 43 0 16 -8 23 -32 27 -18 3 -47 9 -64
12 -24 5 -33 3 -38 -10z"/>
<path d="M9555 4460 c3 -5 8 -10 11 -10 2 0 4 5 4 10 0 6 -5 10 -11 10 -5 0
-7 -4 -4 -10z"/>
<path d="M9615 4449 c-11 -17 1 -21 15 -4 8 9 8 15 2 15 -6 0 -14 -5 -17 -11z"/>
<path d="M4126 4436 c3 -9 13 -16 22 -16 8 0 13 1 11 3 -2 1 -12 9 -22 16 -15
12 -17 12 -11 -3z"/>
<path d="M3085 4430 c-3 -5 -1 -10 4 -10 6 0 11 5 11 10 0 6 -2 10 -4 10 -3 0
-8 -4 -11 -10z"/>
<path d="M9660 4410 c-14 -3 -25 -12 -25 -20 0 -19 53 -16 73 3 12 12 11 15
-5 19 -10 2 -29 2 -43 -2z"/>
<path d="M9847 4395 c-4 -8 -13 -15 -20 -15 -8 0 -42 -14 -75 -31 l-61 -32
-54 28 -55 27 -47 -21 c-33 -15 -50 -29 -58 -51 -11 -28 -26 -35 -63 -31 -6 1
-17 -6 -24 -14 -9 -11 -9 -15 -1 -15 7 0 9 -5 6 -10 -5 -8 -11 -7 -21 1 -22
18 -18 -8 6 -38 12 -16 20 -20 20 -11 0 24 24 68 41 73 22 7 99 -44 99 -66 0
-15 7 -14 58 12 31 16 65 29 75 29 9 0 27 10 39 22 30 30 117 34 170 7 42 -21
52 -24 43 -9 -8 13 -89 50 -109 50 -10 0 -16 9 -16 25 0 18 5 25 18 25 18 0
50 45 40 55 -3 3 -8 -1 -11 -10z m-209 -82 c25 -6 48 -51 35 -64 -4 -4 -21
-10 -36 -13 -16 -3 -35 -10 -42 -16 -10 -8 -16 -7 -24 7 -6 10 -11 12 -11 5 0
-10 -7 -9 -30 3 -37 19 -40 40 -5 31 27 -7 35 8 9 18 -8 3 -12 10 -9 16 4 6
10 8 15 5 5 -3 11 -1 15 5 7 11 48 13 83 3z"/>
<path d="M3405 4380 c3 -5 8 -10 11 -10 2 0 4 5 4 10 0 6 -5 10 -11 10 -5 0
-7 -4 -4 -10z"/>
<path d="M3633 4378 c-32 -15 -29 -26 9 -30 23 -2 36 -11 45 -28 12 -24 14
-24 17 3 0 6 12 13 24 15 23 4 23 4 -9 28 -36 26 -52 28 -86 12z"/>
<path d="M3486 4373 c7 -2 14 -13 17 -24 5 -18 9 -19 27 -9 26 14 17 26 -25
32 -16 3 -25 3 -19 1z"/>
<path d="M1931 4319 c5 -11 14 -17 20 -14 15 10 10 22 -11 28 -17 4 -18 2 -9
-14z"/>
<path d="M2090 4327 c0 -19 16 -31 24 -18 3 5 -1 14 -9 21 -12 10 -15 10 -15
-3z"/>
<path d="M3617 4305 c-15 -22 -16 -25 -2 -25 8 0 15 5 15 10 0 6 5 10 11 10 6
0 9 -6 6 -14 -3 -8 3 -22 13 -31 18 -16 19 -16 18 17 -1 28 -20 57 -38 57 -3
0 -13 -11 -23 -24z"/>
<path d="M3907 4324 c-3 -6 10 -34 30 -64 19 -30 32 -46 28 -35 -4 11 -10 29
-12 40 -6 28 -39 70 -46 59z"/>
<path d="M9925 4320 c-3 -5 1 -10 10 -10 9 0 13 5 10 10 -3 6 -8 10 -10 10 -2
0 -7 -4 -10 -10z"/>
<path d="M1840 4305 c-7 -9 -11 -17 -8 -20 2 -2 12 4 21 15 9 11 13 20 8 20
-5 0 -14 -7 -21 -15z"/>
<path d="M3485 4309 c-4 -6 -5 -12 -2 -15 2 -3 7 2 10 11 7 17 1 20 -8 4z"/>
<path d="M10197 4313 c-4 -3 -7 -13 -7 -21 0 -12 3 -12 15 -2 8 7 15 16 15 21
0 11 -14 12 -23 2z"/>
<path d="M10128 4303 c-10 -2 -18 -8 -18 -13 0 -5 -2 -14 -5 -22 -3 -7 10 -30
29 -51 30 -33 39 -37 77 -35 37 1 39 2 12 5 -27 3 -33 9 -33 28 0 13 6 25 13
28 10 4 10 7 0 18 -11 11 -13 10 -13 -4 0 -26 -47 -22 -55 4 -8 23 -8 22 20
37 21 12 7 14 -27 5z"/>
<path d="M8905 4266 c4 -19 2 -43 -4 -55 -8 -13 -8 -21 -2 -21 15 0 41 54 41
85 0 19 -5 25 -20 25 -18 0 -20 -4 -15 -34z"/>
<path d="M10275 4290 c3 -5 8 -10 11 -10 2 0 4 5 4 10 0 6 -5 10 -11 10 -5 0
-7 -4 -4 -10z"/>
<path d="M4350 4280 c0 -5 4 -10 9 -10 6 0 37 -25 69 -55 56 -52 78 -66 70
-47 -5 13 -129 122 -139 122 -5 0 -9 -4 -9 -10z"/>
<path d="M7945 4260 c-12 -4 -27 -15 -34 -24 -7 -9 -28 -17 -45 -17 -17 -1
-23 -3 -13 -6 23 -6 22 -13 -10 -40 -19 -15 -23 -22 -13 -23 9 0 34 18 55 40
22 22 49 40 60 40 12 0 30 9 40 20 17 19 17 20 -1 19 -10 0 -28 -4 -39 -9z"/>
<path d="M10001 4248 c-13 -4 -21 -11 -18 -14 8 -8 75 4 81 15 7 11 -33 11
-63 -1z"/>
<path d="M4320 4231 c5 -11 31 -37 57 -58 25 -21 59 -50 74 -64 15 -14 53 -43
86 -64 32 -21 91 -60 130 -87 40 -26 77 -48 83 -48 18 0 10 29 -10 35 -11 3
-38 22 -61 41 -22 19 -49 34 -59 34 -20 0 -99 57 -217 158 -46 39 -86 72 -89
72 -3 0 0 -9 6 -19z"/>
<path d="M7970 4210 c0 -5 5 -10 11 -10 5 0 7 5 4 10 -3 6 -8 10 -11 10 -2 0
-4 -4 -4 -10z"/>
<path d="M8025 4190 c3 -5 8 -10 11 -10 2 0 4 5 4 10 0 6 -5 10 -11 10 -5 0
-7 -4 -4 -10z"/>
<path d="M8361 4181 c-7 -5 -12 -14 -10 -20 2 -6 10 -2 17 9 14 22 13 23 -7
11z"/>
<path d="M8150 4173 c0 -6 -3 -20 -6 -30 -7 -17 -6 -17 12 -1 14 14 16 21 6
30 -8 8 -12 9 -12 1z"/>
<path d="M9183 4157 c-31 -21 -42 -37 -25 -37 4 0 23 13 42 30 40 34 30 38
-17 7z"/>
<path d="M4006 4133 c4 -21 20 -50 39 -68 17 -18 38 -47 45 -66 8 -19 17 -36
21 -39 4 -3 5 -18 2 -33 -6 -29 -16 -31 -68 -11 -15 6 -16 4 -6 -14 19 -35 58
-39 88 -10 l24 25 -46 86 c-25 48 -43 92 -40 98 7 10 -42 68 -58 69 -4 0 -5
-17 -1 -37z"/>
<path d="M7665 4157 c-10 -8 -14 -16 -9 -20 15 -9 62 4 68 19 7 18 -34 19 -59
1z"/>
<path d="M1926 4131 c-15 -16 -40 -31 -55 -34 -43 -9 -81 -45 -81 -77 0 -31
18 -50 30 -31 5 8 23 10 56 6 50 -7 49 -7 111 45 7 5 19 10 28 10 15 0 15 1 1
16 -9 8 -16 28 -16 43 0 28 -16 51 -35 51 -6 0 -24 -13 -39 -29z m20 -55 c15
-12 16 -17 7 -27 -10 -10 -14 -9 -19 4 -6 15 -9 15 -33 -3 -21 -14 -31 -16
-39 -8 -21 21 -13 37 21 41 17 2 35 5 38 5 3 1 14 -4 25 -12z"/>
<path d="M7338 4143 c-10 -2 -18 -11 -18 -19 0 -12 4 -12 30 1 43 22 37 31
-12 18z"/>
<path d="M7014 4125 c-10 -8 -14 -15 -8 -15 5 0 19 7 30 15 10 8 14 15 8 15
-5 0 -19 -7 -30 -15z"/>
<path d="M8340 4134 c0 -16 17 -37 27 -33 6 2 2 13 -8 23 -11 11 -19 15 -19
10z"/>
<path d="M8068 4115 c-3 -4 -28 -11 -54 -18 -38 -9 -50 -17 -52 -34 l-3 -22
40 22 c35 19 44 20 72 10 40 -15 43 -13 28 21 -12 26 -20 31 -31 21z"/>
<path d="M8770 4095 c0 -14 6 -25 14 -25 9 0 12 8 8 25 -2 14 -8 25 -13 25 -5
0 -9 -11 -9 -25z"/>
<path d="M8690 4064 c0 -8 5 -12 10 -9 6 4 8 11 5 16 -9 14 -15 11 -15 -7z"/>
<path d="M7035 4050 c-8 -13 5 -13 25 0 13 8 13 10 -2 10 -9 0 -20 -4 -23 -10z"/>
<path d="M2085 4030 c26 -11 45 -12 45 -2 0 4 -15 8 -33 9 -26 1 -28 0 -12 -7z"/>
<path d="M1985 4010 c-10 -11 -27 -20 -37 -20 -11 0 -16 -4 -13 -10 3 -5 23
-10 45 -10 28 0 48 -9 78 -32 23 -18 41 -38 41 -45 1 -7 7 -10 15 -7 8 3 17 1
21 -5 10 -17 23 -13 30 9 6 20 28 22 54 6 15 -10 31 9 31 36 0 24 -48 78 -70
78 -10 0 -21 -8 -24 -17 -4 -10 -4 -14 0 -10 10 10 64 -32 64 -50 0 -12 -7
-14 -37 -8 -53 10 -87 29 -102 59 -11 19 -55 46 -76 46 -1 0 -10 -9 -20 -20z"/>
<path d="M6915 4020 c-13 -5 -14 -9 -5 -9 8 0 24 4 35 9 13 5 14 9 5 9 -8 0
-24 -4 -35 -9z"/>
<path d="M8716 3983 c-25 -50 -75 -98 -110 -104 -28 -6 -44 -35 -28 -51 10
-10 15 -10 22 2 5 8 10 12 10 8 0 -18 105 102 122 140 27 61 15 65 -16 5z"/>
<path d="M8053 4000 c-26 -15 -39 -17 -59 -9 -30 11 -46 3 -24 -11 31 -20 103
-3 114 26 3 8 4 14 3 13 -1 0 -17 -9 -34 -19z"/>
<path d="M8990 3984 c-25 -19 -57 -34 -72 -34 -15 0 -29 -4 -32 -9 -4 -5 3 -7
14 -4 15 4 20 0 20 -15 0 -13 -8 -22 -22 -25 -15 -3 -10 -5 13 -6 23 0 39 -7
43 -16 10 -27 35 -17 38 17 3 27 11 35 51 55 52 26 58 38 25 49 -13 4 -25 10
-28 14 -3 4 -25 -8 -50 -26z m-10 -79 c0 -8 -4 -15 -9 -15 -13 0 -22 16 -14
24 11 11 23 6 23 -9z"/>
<path d="M4021 3964 c0 -11 3 -14 6 -6 3 7 2 16 -1 19 -3 4 -6 -2 -5 -13z"/>
<path d="M9147 3957 c-25 -21 -39 -77 -19 -77 7 0 53 92 48 97 -2 2 -15 -7
-29 -20z"/>
<path d="M6720 3945 l-45 -13 37 -1 c41 -1 68 7 68 20 0 11 -3 11 -60 -6z"/>
<path d="M7178 3944 c-3 -3 -29 -5 -57 -6 -28 0 -54 -4 -57 -10 -4 -6 20 -7
65 -2 54 5 71 4 71 -6 0 -13 8 -12 75 14 l40 15 -66 1 c-36 0 -68 -3 -71 -6z"/>
<path d="M8567 3901 c-19 -21 -38 -45 -43 -53 -5 -8 -25 -24 -44 -35 -42 -26
-99 -83 -82 -83 6 0 27 14 45 30 19 17 42 30 50 30 8 0 26 17 38 38 12 20 36
54 52 75 37 48 29 48 -16 -2z"/>
<path d="M4980 3926 c0 -9 163 -112 208 -131 71 -30 58 -9 -20 33 -40 21 -99
53 -130 71 -32 18 -58 30 -58 27z"/>
<path d="M4835 3891 c3 -6 20 -18 37 -27 16 -9 27 -11 23 -5 -3 6 -20 18 -37
27 -16 9 -27 11 -23 5z"/>
<path d="M8696 3875 c-11 -8 -17 -17 -14 -20 3 -3 16 3 29 14 27 23 14 28 -15
6z"/>
<path d="M2211 3849 c-8 -24 -15 -29 -31 -24 -15 5 -20 2 -20 -14 0 -11 -7
-27 -16 -35 -8 -9 -11 -16 -6 -16 16 0 102 90 102 106 0 25 -18 15 -29 -17z"/>
<path d="M6868 3848 c8 -8 17 -8 34 0 22 10 21 11 -11 11 -27 1 -32 -2 -23
-11z"/>
<path d="M9050 3822 c-25 -8 -63 -17 -84 -21 -44 -7 -52 -18 -33 -45 11 -15
17 -16 40 -5 15 7 27 16 27 20 0 5 17 13 39 19 34 9 70 35 60 44 -2 1 -24 -4
-49 -12z"/>
<path d="M4266 3763 c38 -75 52 -87 94 -78 32 7 39 22 15 32 -9 3 -40 30 -71
59 -30 30 -59 54 -63 54 -5 0 6 -30 25 -67z"/>
<path d="M5020 3799 c19 -12 47 -32 62 -45 15 -12 52 -30 82 -38 74 -22 80
-20 21 8 -27 13 -77 40 -109 60 -33 20 -67 36 -75 36 -9 0 0 -10 19 -21z"/>
<path d="M5923 3813 c9 -2 23 -2 30 0 6 3 -1 5 -18 5 -16 0 -22 -2 -12 -5z"/>
<path d="M6168 3783 c7 -3 16 -2 19 1 4 3 -2 6 -13 5 -11 0 -14 -3 -6 -6z"/>
<path d="M5978 3763 c7 -3 16 -2 19 1 4 3 -2 6 -13 5 -11 0 -14 -3 -6 -6z"/>
<path d="M8135 3740 c-8 -13 15 -13 35 0 12 8 11 10 -7 10 -12 0 -25 -4 -28
-10z"/>
<path d="M8504 3725 c-9 -14 -27 -28 -40 -31 -27 -7 -33 -24 -8 -24 31 0 74
33 74 57 0 29 -6 29 -26 -2z"/>
<path d="M6940 3720 c-12 -8 -10 -10 9 -10 13 0 30 -8 37 -17 12 -17 13 -17
14 3 0 30 -31 42 -60 24z"/>
<path d="M8050 3721 c-46 -9 -89 -33 -72 -39 8 -2 19 1 25 7 6 6 25 11 43 11
38 0 64 9 64 21 0 10 -9 10 -60 0z"/>
<path d="M8230 3723 c8 -3 23 -12 33 -21 15 -14 17 -13 17 6 0 18 -6 22 -32
21 -18 0 -26 -3 -18 -6z"/>
<path d="M8760 3720 c-8 -5 -12 -11 -10 -14 3 -2 14 2 24 10 22 15 10 19 -14
4z"/>
<path d="M8858 3723 c-14 -2 -32 -11 -40 -20 -12 -15 -10 -16 17 -9 17 4 37
14 45 22 8 8 12 13 10 13 -3 -1 -17 -4 -32 -6z"/>
<path d="M4500 3702 c49 -33 130 -119 145 -155 14 -34 45 -52 45 -25 0 24 52
-36 110 -128 20 -31 34 -31 26 1 -6 23 -4 24 25 18 23 -4 30 -3 25 5 -4 7 -13
12 -20 12 -37 0 -83 38 -235 193 -62 63 -108 97 -131 96 -10 0 -6 -6 10 -17z"/>
<path d="M8310 3710 c0 -5 7 -10 16 -10 8 0 12 5 9 10 -3 6 -10 10 -16 10 -5
0 -9 -4 -9 -10z"/>
<path d="M2166 3694 c-18 -48 2 -57 42 -18 24 22 25 25 7 22 -11 -1 -25 1 -31
5 -7 4 -15 0 -18 -9z"/>
<path d="M5775 3684 c-43 -9 -96 -12 -137 -8 -45 3 -68 2 -68 -5 0 -6 10 -10
23 -10 12 0 54 -4 92 -10 69 -11 235 -9 328 4 62 9 66 35 5 35 -24 0 -72 2
-108 4 -36 3 -96 -2 -135 -10z"/>
<path d="M2314 3655 c0 -25 3 -32 12 -24 7 5 10 19 7 30 -9 33 -19 30 -19 -6z"/>
<path d="M4405 3680 c3 -5 11 -10 16 -10 6 0 7 5 4 10 -3 6 -11 10 -16 10 -6
0 -7 -4 -4 -10z"/>
<path d="M4485 3650 c3 -5 10 -10 16 -10 5 0 9 5 9 10 0 6 -7 10 -16 10 -8 0
-12 -4 -9 -10z"/>
<path d="M5190 3643 c1 -13 38 -53 49 -53 18 0 13 15 -12 38 -24 23 -37 28
-37 15z"/>
<path d="M7908 3618 c-20 -26 -23 -37 -15 -55 14 -32 2 -56 -25 -49 -13 3 -17
3 -10 0 6 -3 12 -12 12 -20 0 -22 37 -17 43 6 3 11 3 39 0 62 -6 40 -5 41 18
34 70 -19 72 -19 67 -5 -2 8 -17 15 -32 17 -22 3 -27 8 -23 23 8 29 -8 23 -35
-13z"/>
<path d="M8320 3632 c-52 -19 -59 -37 -15 -37 19 0 40 9 59 27 32 32 22 34
-44 10z"/>
<path d="M8615 3640 c3 -5 8 -10 11 -10 2 0 4 5 4 10 0 6 -5 10 -11 10 -5 0
-7 -4 -4 -10z"/>
<path d="M6483 3628 c8 -4 49 -8 91 -10 62 -2 80 -7 85 -19 5 -15 9 -16 44 -2
50 20 47 33 -10 34 -146 5 -221 4 -210 -3z"/>
<path d="M1962 3618 c-18 -18 -15 -28 10 -28 12 0 32 -9 44 -21 24 -23 44 -18
44 10 0 40 -69 68 -98 39z"/>
<path d="M6990 3620 c12 -8 13 -13 2 -30 -14 -23 -4 -26 23 -6 16 12 17 16 6
30 -7 9 -21 16 -30 16 -14 0 -14 -2 -1 -10z"/>
<path d="M8526 3614 c-17 -12 -17 -14 -4 -14 9 0 20 5 23 11 11 17 2 18 -19 3z"/>
<path d="M2218 3596 c-21 -29 -15 -36 34 -36 25 0 37 4 36 13 -2 6 6 12 16 12
11 0 21 6 24 13 2 7 -5 12 -16 12 -11 0 -32 2 -48 5 -23 4 -33 0 -46 -19z"/>
<path d="M6170 3617 c0 -3 37 -17 81 -31 45 -15 93 -35 108 -45 15 -11 54 -21
95 -25 65 -6 136 -28 136 -41 0 -8 -32 -57 -47 -73 -7 -7 -13 -16 -13 -20 1
-4 15 10 33 31 19 22 41 37 55 37 32 0 28 -10 -28 -65 -39 -38 -50 -56 -49
-80 0 -25 2 -27 8 -10 5 11 29 39 55 63 25 23 46 49 46 56 0 8 7 16 15 20 8 3
15 12 15 20 0 7 16 26 35 42 45 35 35 46 -47 49 -35 1 -83 9 -108 17 -40 13
-49 13 -67 1 -17 -11 -30 -12 -55 -5 -132 40 -268 70 -268 59z m480 -117 c0
-11 -4 -20 -9 -20 -11 0 -22 26 -14 34 12 12 23 5 23 -14z"/>
<path d="M6756 3611 c5 -5 25 -12 45 -16 26 -5 39 -2 48 9 12 14 7 16 -45 16
-36 0 -54 -4 -48 -9z"/>
<path d="M6873 3606 c3 -7 0 -19 -6 -25 -6 -6 -8 -11 -3 -11 4 0 14 7 22 15 9
8 25 15 37 16 21 0 21 1 2 9 -32 14 -58 12 -52 -4z"/>
<path d="M8084 3595 l-22 -24 25 -25 c24 -24 24 -25 4 -35 -10 -6 -32 -8 -48
-6 -38 7 -87 -8 -91 -28 -4 -21 26 -23 54 -2 16 11 33 12 73 6 28 -4 54 -11
57 -14 12 -12 -54 -66 -115 -94 -58 -27 -80 -53 -44 -53 9 0 61 25 115 55 94
54 98 55 122 40 13 -9 27 -12 30 -7 6 10 -49 54 -79 63 -14 3 -20 14 -20 32 0
15 -5 31 -11 35 -6 4 -15 24 -20 44 l-9 37 -21 -24z"/>
<path d="M5575 3561 c2 -27 6 -55 10 -62 5 -7 1 -16 -9 -21 -12 -7 -14 -14 -6
-28 8 -15 5 -25 -14 -47 -23 -26 -25 -27 -52 -13 -15 8 -36 30 -47 48 -10 17
-23 32 -28 32 -5 0 -9 8 -9 18 0 26 -37 59 -51 45 -8 -8 -8 -17 0 -31 6 -11
11 -35 11 -53 0 -27 3 -31 22 -26 24 7 58 -17 58 -40 0 -7 8 -13 19 -13 10 0
30 -14 45 -32 26 -31 26 -31 26 -7 0 37 15 55 33 41 16 -13 27 -6 27 16 0 9 7
24 16 33 23 26 36 99 18 99 -8 0 -14 5 -14 11 0 6 7 8 16 5 9 -3 28 -9 42 -12
15 -3 55 -15 89 -26 46 -16 68 -19 84 -12 19 9 10 13 -62 28 -110 24 -153 42
-146 61 7 17 3 20 -44 29 l-36 6 2 -49z"/>
<path d="M4876 3586 c-10 -9 -16 -22 -13 -30 8 -21 73 -32 92 -16 12 10 30 10
88 1 39 -7 89 -13 109 -14 20 -2 40 -6 44 -10 13 -12 24 -8 18 8 -8 21 -85 65
-113 65 -12 0 -33 -7 -47 -16 -22 -15 -26 -15 -42 -1 -25 22 -113 31 -136 13z"/>
<path d="M7680 3587 c-71 -38 -72 -38 -60 -51 5 -8 8 -21 4 -30 -5 -12 0 -16
19 -16 32 0 43 16 26 37 -11 13 -10 18 10 34 13 11 39 19 58 19 20 0 32 4 28
10 -9 14 -55 12 -85 -3z"/>
<path d="M8193 3575 c-6 -14 -9 -25 -7 -25 11 0 54 33 54 41 0 20 -36 7 -47
-16z"/>
<path d="M5995 3569 c22 -5 81 -23 130 -39 126 -40 145 -43 145 -26 0 10 -14
18 -37 22 -21 4 -55 15 -76 26 -24 12 -67 20 -120 23 -70 4 -76 3 -42 -6z"/>
<path d="M8367 3548 c-4 -13 -4 -37 -1 -54 3 -20 0 -35 -11 -44 -20 -17 -19
-30 3 -30 32 0 67 124 40 142 -20 12 -25 10 -31 -14z"/>
<path d="M6274 3535 c11 -8 29 -15 40 -15 16 1 12 5 -13 15 -42 19 -52 19 -27
0z"/>
<path d="M7470 3540 c0 -12 8 -12 35 0 18 8 17 9 -7 9 -16 1 -28 -3 -28 -9z"/>
<path d="M7558 3533 c6 -2 18 -2 25 0 6 3 1 5 -13 5 -14 0 -19 -2 -12 -5z"/>
<path d="M6855 3520 c-3 -5 -2 -10 4 -10 5 0 13 5 16 10 3 6 2 10 -4 10 -5 0
-13 -4 -16 -10z"/>
<path d="M7000 3515 c-7 -8 -18 -15 -26 -15 -13 0 -30 -38 -20 -47 3 -3 18 0
34 6 16 7 40 9 54 6 35 -9 46 28 15 50 -27 19 -41 19 -57 0z"/>
<path d="M4661 3484 c20 -21 46 -58 58 -81 12 -23 31 -48 43 -54 l22 -12 -18
28 c-10 16 -27 43 -37 60 -11 17 -38 47 -62 65 l-42 33 36 -39z"/>
<path d="M6906 3495 c-7 -18 2 -44 22 -67 8 -10 12 -24 8 -33 -5 -13 1 -16 32
-13 47 4 47 16 -1 41 -36 18 -38 22 -32 53 4 26 2 34 -8 34 -8 0 -17 -7 -21
-15z"/>
<path d="M7560 3499 c0 -12 38 -31 44 -21 2 4 -7 12 -20 19 -13 6 -24 7 -24 2z"/>
<path d="M6738 3493 c-10 -2 -18 -11 -18 -19 0 -8 -7 -17 -15 -20 -17 -7 -21
-34 -5 -34 6 0 10 5 10 10 0 6 5 10 10 10 6 0 10 -7 10 -15 0 -8 6 -15 13 -15
6 0 4 -5 -7 -11 -10 -6 -26 -19 -36 -28 -10 -9 -30 -24 -44 -34 -14 -10 -28
-31 -31 -50 -4 -22 -18 -40 -41 -56 -19 -13 -37 -34 -40 -48 -9 -33 -55 -63
-98 -63 -19 0 -84 -16 -143 -35 -66 -21 -111 -31 -117 -25 -11 11 10 65 41
103 26 32 30 67 8 67 -9 0 -15 9 -15 23 0 22 -19 60 -21 42 -1 -5 0 -25 1 -43
1 -18 -3 -39 -10 -47 -7 -9 -8 -15 0 -20 15 -9 12 -25 -4 -25 -19 0 -29 -66
-16 -110 5 -19 10 -47 10 -61 0 -36 29 -59 74 -59 43 0 121 31 94 37 -9 2 -26
-1 -37 -6 -29 -16 -56 -13 -75 7 -15 18 -15 20 1 34 21 19 229 72 249 64 8 -3
14 -12 14 -20 0 -8 8 -17 18 -19 12 -3 11 -5 -6 -6 -32 -1 -19 -17 21 -25 18
-3 49 -17 67 -31 18 -14 36 -23 38 -20 9 8 -30 45 -65 62 -40 18 -42 37 -7 60
21 13 30 14 45 5 24 -15 30 -5 33 65 3 82 32 153 61 153 13 0 26 -8 29 -17 5
-12 9 -14 18 -5 16 16 28 15 28 -3 0 -7 -8 -19 -17 -24 -10 -6 -14 -11 -10
-11 11 0 66 30 89 49 10 7 24 11 32 8 9 -4 18 -2 21 4 4 5 -7 12 -24 15 -33 7
-33 24 0 24 10 0 19 6 19 14 0 8 6 16 13 19 6 2 9 7 6 11 -12 13 -38 -5 -32
-22 5 -14 3 -15 -8 -4 -7 6 -23 12 -36 12 -13 0 -23 5 -23 10 0 7 -6 7 -19 1
-17 -10 -31 -6 -31 9 0 4 11 12 25 18 28 13 34 32 10 32 -8 0 -15 6 -15 14 0
9 -8 12 -25 8 -15 -2 -25 0 -25 7 0 6 7 11 15 11 8 0 15 7 15 15 0 8 -1 14 -2
14 -2 -1 -11 -3 -20 -6z m62 -168 c0 -19 -5 -25 -22 -25 -13 0 -30 5 -38 10
-13 9 -12 12 4 25 31 24 56 19 56 -10z"/>
<path d="M7082 3460 c3 -17 1 -33 -4 -36 -12 -8 -10 -24 5 -24 6 0 18 15 26
33 7 17 21 38 29 45 13 10 10 12 -22 12 -37 0 -38 -1 -34 -30z"/>
<path d="M6840 3465 c0 -19 11 -19 36 0 18 14 18 14 -8 15 -18 0 -28 -5 -28
-15z"/>
<path d="M7255 3470 c-3 -5 -14 -10 -25 -10 -24 0 -31 -23 -17 -54 13 -29 35
-32 75 -12 28 14 102 10 102 -5 0 -5 -24 -9 -52 -10 l-53 0 49 -15 c53 -17 98
-12 90 9 -3 8 2 19 9 26 12 9 16 8 21 -6 4 -10 2 -19 -3 -21 -7 -2 -5 -9 3
-18 21 -21 38 -17 31 6 -3 11 -2 20 3 20 18 0 29 -25 26 -60 -2 -19 1 -52 8
-73 9 -30 9 -43 0 -58 -7 -11 -10 -30 -6 -44 4 -17 2 -25 -7 -25 -9 0 -10 -3
-3 -10 21 -21 42 1 48 51 4 27 4 54 1 58 -4 8 105 20 175 19 61 0 200 57 200
82 0 14 -133 -1 -151 -17 -11 -9 -40 -13 -90 -13 -41 1 -92 -2 -113 -5 l-39
-8 6 33 c4 18 7 36 7 41 0 12 37 11 60 -1 13 -7 19 -6 24 5 5 14 -4 18 -59 27
-12 2 -19 11 -19 21 2 18 -21 23 -31 7 -8 -12 -61 14 -94 46 -30 30 -61 32
-61 4 0 -11 -4 -20 -10 -20 -5 0 -10 4 -10 9 0 5 -9 7 -20 4 -16 -4 -19 -2
-14 13 5 18 5 18 -10 0 -9 -11 -16 -23 -16 -28 0 -4 -5 -8 -11 -8 -7 0 -9 10
-5 25 6 24 -7 35 -19 15z"/>
<path d="M5216 3421 c-4 -5 9 -19 28 -30 48 -30 112 -102 136 -154 11 -24 31
-50 44 -57 25 -13 66 -6 66 11 0 6 -9 7 -20 4 -14 -5 -29 2 -50 24 -17 16 -30
36 -30 43 0 19 -109 132 -157 161 -6 4 -14 3 -17 -2z"/>
<path d="M10597 3403 c-4 -3 -7 -13 -7 -22 1 -13 3 -13 11 2 11 19 8 33 -4 20z"/>
<path d="M6117 3389 c7 -7 15 -10 18 -7 3 3 -2 9 -12 12 -14 6 -15 5 -6 -5z"/>
<path d="M7723 3392 c-13 -2 -23 -8 -23 -13 0 -13 37 -11 45 2 9 14 5 16 -22
11z"/>
<path d="M3811 3354 c-48 -61 -4 -154 72 -154 20 0 42 -3 51 -6 20 -8 46 44
46 95 0 37 -19 71 -40 71 -5 0 -14 2 -22 5 -10 4 -13 -4 -10 -36 6 -54 -13
-89 -48 -89 -14 0 -31 5 -38 12 -19 19 -14 69 9 94 12 13 16 24 11 28 -6 3
-20 -6 -31 -20z"/>
<path d="M6507 3352 c-10 -10 -14 -22 -10 -25 12 -13 21 -7 25 18 6 30 6 30
-15 7z"/>
<path d="M8262 3319 c-18 -16 -33 -38 -33 -47 -1 -9 -3 -30 -5 -45 -2 -22 2
-30 22 -37 32 -13 64 -13 64 -1 0 5 -10 11 -22 13 -32 5 -33 24 -2 53 32 30
25 43 -12 26 -40 -18 -42 -4 -3 28 19 16 32 32 29 35 -3 3 -20 -8 -38 -25z"/>
<path d="M2244 3324 c-19 -15 -18 -15 3 -9 15 4 29 -1 42 -14 25 -25 31 -26
31 -7 0 13 -36 46 -50 46 -4 0 -15 -7 -26 -16z"/>
<path d="M6020 3331 c-14 -4 -31 -18 -39 -32 -13 -23 -12 -29 13 -71 17 -30
38 -50 57 -57 26 -9 28 -8 20 7 -5 10 -19 26 -30 36 -29 26 -26 39 13 70 36
27 91 35 99 14 4 -10 6 -9 6 1 2 34 -71 51 -139 32z"/>
<path d="M4841 3325 c0 -34 28 -110 40 -110 17 0 16 48 -1 67 -6 7 -17 22 -25
33 -8 11 -14 16 -14 10z"/>
<path d="M4913 3314 c-8 -21 14 -34 58 -34 19 0 41 -6 48 -12 10 -11 11 -10 6
3 -6 16 -20 25 -78 48 -23 9 -29 8 -34 -5z"/>
<path d="M6926 3295 c15 -14 31 -25 35 -25 5 0 27 -16 49 -36 45 -41 54 -31
13 14 -24 26 -100 72 -118 72 -3 0 6 -11 21 -25z"/>
<path d="M8320 3316 c0 -9 30 -14 35 -6 4 6 -3 10 -14 10 -12 0 -21 -2 -21 -4z"/>
<path d="M2212 3270 c1 -13 9 -25 16 -28 17 -5 15 23 -4 39 -14 11 -15 10 -12
-11z"/>
<path d="M4785 3270 c-3 -5 -1 -10 4 -10 6 0 11 5 11 10 0 6 -2 10 -4 10 -3 0
-8 -4 -11 -10z"/>
<path d="M8340 3273 c0 -4 5 -15 10 -23 8 -13 10 -13 10 2 0 9 -4 20 -10 23
-5 3 -10 3 -10 -2z"/>
<path d="M6520 3260 c-8 -5 -12 -12 -9 -15 4 -3 12 1 19 10 14 17 11 19 -10 5z"/>
<path d="M2025 3245 l-30 -13 29 -1 c25 -1 27 -4 22 -26 -7 -28 5 -33 24 -11
13 17 10 58 -5 62 -5 2 -23 -3 -40 -11z"/>
<path d="M4157 3243 c-15 -14 -6 -23 12 -13 11 5 27 7 37 3 12 -4 15 -3 10 5
-8 13 -48 16 -59 5z"/>
<path d="M4774 3236 c-8 -22 3 -33 18 -18 9 9 9 15 0 24 -9 9 -13 7 -18 -6z"/>
<path d="M6491 3224 c0 -11 3 -14 6 -6 3 7 2 16 -1 19 -3 4 -6 -2 -5 -13z"/>
<path d="M5550 3220 c0 -11 33 -30 51 -30 8 0 5 7 -6 20 -19 21 -45 27 -45 10z"/>
<path d="M8100 3215 c-7 -8 -8 -15 -2 -15 5 0 15 7 22 15 7 8 8 15 2 15 -5 0
-15 -7 -22 -15z"/>
<path d="M4880 3177 c0 -14 20 -37 32 -37 4 0 2 11 -4 25 -12 27 -28 34 -28
12z"/>
<path d="M7056 3177 c3 -10 9 -15 12 -12 3 3 0 11 -7 18 -10 9 -11 8 -5 -6z"/>
<path d="M2812 3158 c-16 -16 -15 -28 2 -28 8 0 23 -12 34 -27 29 -40 35 -25
10 25 -24 45 -28 48 -46 30z"/>
<path d="M5012 3147 c-12 -13 -22 -27 -22 -31 0 -10 59 36 59 47 2 14 -16 7
-37 -16z"/>
<path d="M4740 3140 c0 -5 5 -10 10 -10 6 0 10 5 10 10 0 6 -4 10 -10 10 -5 0
-10 -4 -10 -10z"/>
<path d="M7070 3133 c1 -10 7 -29 14 -42 19 -35 30 -8 11 29 -18 34 -25 38
-25 13z"/>
<path d="M1825 3130 c3 -5 8 -10 11 -10 2 0 4 5 4 10 0 6 -5 10 -11 10 -5 0
-7 -4 -4 -10z"/>
<path d="M4760 3078 c0 -40 17 -94 27 -85 3 3 2 14 -2 24 -4 10 -7 28 -6 40 1
12 -2 30 -8 40 -9 15 -10 11 -11 -19z"/>
<path d="M4924 3099 c-3 -5 -21 -9 -41 -9 -35 0 -36 0 -18 -20 22 -24 38 -25
55 -5 20 24 31 6 25 -40 -8 -47 10 -99 25 -75 5 7 4 24 -1 38 -6 15 -6 38 1
61 5 20 10 39 10 42 0 11 -50 17 -56 8z"/>
<path d="M6684 3082 c-10 -15 -7 -21 15 -33 l27 -16 -10 34 c-12 38 -17 40
-32 15z"/>
<path d="M7768 3093 c-10 -2 -18 -9 -18 -14 0 -6 8 -5 20 1 11 6 20 13 20 15
0 3 -1 4 -2 4 -2 -1 -11 -3 -20 -6z"/>
<path d="M7980 3051 c-12 -24 -35 -48 -59 -62 -22 -12 -42 -28 -45 -36 -7 -18
-4 -17 54 22 29 19 58 35 65 35 18 0 28 32 14 41 -7 4 -9 14 -6 23 12 31 -3
16 -23 -23z"/>
<path d="M5713 3069 c-14 -14 -7 -37 24 -70 34 -37 41 -97 15 -129 l-20 -24
25 -13 c14 -7 36 -13 50 -13 13 0 33 -5 44 -10 29 -16 23 5 -8 29 -49 36 -53
41 -53 64 0 12 -11 45 -24 73 -21 46 -22 53 -9 67 9 8 12 20 9 26 -9 14 -39
14 -53 0z m92 -218 c7 -12 -12 -24 -25 -16 -11 7 -4 25 10 25 5 0 11 -4 15 -9z"/>
<path d="M7879 3066 c7 -9 10 -23 7 -32 -4 -10 -1 -14 6 -12 21 7 16 52 -7 57
-17 3 -18 1 -6 -13z"/>
<path d="M2133 3016 c-36 -17 -48 -50 -29 -77 11 -17 13 -26 4 -36 -16 -19
-28 -16 -28 9 l0 21 -25 -23 c-14 -13 -25 -34 -25 -46 0 -13 -4 -25 -9 -28 -5
-3 -11 -14 -14 -25 -7 -28 22 -15 34 15 8 22 39 34 39 17 0 -5 4 -14 9 -22 8
-12 12 -12 25 -2 19 16 34 7 48 -27 l10 -27 14 30 c7 17 13 47 14 67 0 32 4
39 35 54 34 16 37 16 55 -1 11 -10 20 -24 20 -32 0 -23 19 -14 26 12 4 15 1
32 -6 40 -14 17 -75 20 -85 5 -11 -18 -35 -11 -35 10 0 11 -12 33 -27 48 -24
24 -31 27 -50 18z"/>
<path d="M7140 3021 c0 -5 5 -13 10 -16 6 -3 10 -2 10 4 0 5 -4 13 -10 16 -5
3 -10 2 -10 -4z"/>
<path d="M4856 3003 c-3 -3 -6 -15 -6 -25 0 -20 -26 -25 -33 -5 -4 8 -6 7 -6
-4 -2 -26 42 -59 77 -59 25 0 32 -4 32 -19 0 -14 5 -18 20 -14 11 3 20 11 20
19 0 19 -37 36 -61 29 -24 -8 -53 13 -41 29 15 19 22 45 13 50 -5 3 -11 3 -15
-1z"/>
<path d="M7083 2930 c-30 -12 -29 -28 3 -40 33 -13 30 -51 -6 -61 -23 -6 -24
-7 -5 -14 42 -15 45 -14 45 10 0 37 19 40 31 6 6 -17 17 -31 25 -31 8 0 14 -5
14 -12 0 -6 3 -9 6 -6 3 3 -2 23 -10 43 -9 21 -16 46 -16 56 0 14 -49 61 -62
58 -1 0 -13 -4 -25 -9z"/>
<path d="M7975 2920 c-3 -5 -2 -10 4 -10 5 0 13 5 16 10 3 6 2 10 -4 10 -5 0
-13 -4 -16 -10z"/>
<path d="M6755 2887 c-4 -10 -5 -21 -1 -24 10 -10 18 4 13 24 -4 17 -4 17 -12
0z"/>
<path d="M7766 2874 c-11 -7 -29 -15 -40 -15 -14 -1 -11 -4 9 -8 28 -6 30 -10
28 -49 -2 -42 -2 -42 56 -72 54 -27 71 -29 71 -9 0 5 -7 6 -15 3 -8 -3 -28 4
-44 15 -22 16 -29 28 -27 51 1 17 10 38 19 47 15 16 18 15 43 -8 14 -13 30
-33 34 -44 7 -15 9 -11 9 20 1 36 -3 42 -34 59 -46 25 -85 29 -109 10z"/>
<path d="M7311 2850 c-27 -23 -23 -37 7 -21 12 6 37 11 56 11 32 0 36 -3 38
-27 0 -16 1 -36 0 -45 -2 -26 17 -22 30 7 7 16 8 35 2 57 -9 31 -13 33 -59 35
-38 2 -56 -2 -74 -17z"/>
<path d="M5640 2845 c0 -8 7 -15 15 -15 8 0 15 7 15 15 0 8 -7 15 -15 15 -8 0
-15 -7 -15 -15z"/>
<path d="M5695 2840 c-3 -5 -2 -10 4 -10 5 0 13 5 16 10 3 6 2 10 -4 10 -5 0
-13 -4 -16 -10z"/>
<path d="M4847 2803 c-9 -23 0 -71 16 -91 6 -7 14 -30 18 -50 l7 -37 1 32 c1
37 14 49 31 28 10 -12 10 -18 -1 -32 -12 -14 -12 -16 1 -11 11 4 14 16 12 44
-4 47 -16 62 -36 45 -18 -15 -28 -1 -36 54 -5 33 -7 36 -13 18z"/>
<path d="M7584 2795 c-16 -12 -17 -14 -2 -15 23 0 48 11 48 21 0 14 -24 11
-46 -6z"/>
<path d="M2100 2790 c0 -5 5 -10 11 -10 5 0 7 5 4 10 -3 6 -8 10 -11 10 -2 0
-4 -4 -4 -10z"/>
<path d="M5623 2788 c-10 -17 -13 -38 -5 -38 4 0 12 11 19 25 11 25 1 35 -14
13z"/>
<path d="M5928 2772 c-18 -21 -28 -70 -19 -95 6 -16 9 -16 26 -3 16 12 18 17
8 27 -17 17 -16 39 3 60 8 9 11 20 6 23 -5 3 -16 -2 -24 -12z"/>
<path d="M5020 2756 c0 -14 5 -26 10 -26 6 0 10 9 10 19 0 11 -4 23 -10 26 -6
4 -10 -5 -10 -19z"/>
<path d="M7220 2771 c0 -6 5 -13 10 -16 6 -3 10 1 10 9 0 9 -4 16 -10 16 -5 0
-10 -4 -10 -9z"/>
<path d="M7529 2763 c-13 -15 -12 -15 9 -4 23 12 28 21 13 21 -5 0 -15 -7 -22
-17z"/>
<path d="M7355 2750 c3 -5 11 -10 16 -10 6 0 7 5 4 10 -3 6 -11 10 -16 10 -6
0 -7 -4 -4 -10z"/>
<path d="M2167 2743 c-4 -3 -7 -11 -7 -17 0 -6 5 -5 12 2 6 6 9 14 7 17 -3 3
-9 2 -12 -2z"/>
<path d="M2120 2720 c13 -11 25 -18 28 -16 7 7 -25 36 -39 36 -7 0 -2 -9 11
-20z"/>
<path d="M6015 2730 c-3 -5 -1 -10 4 -10 6 0 11 5 11 10 0 6 -2 10 -4 10 -3 0
-8 -4 -11 -10z"/>
<path d="M5974 2705 c-10 -8 -14 -15 -8 -15 6 0 17 7 24 15 16 19 9 19 -16 0z"/>
<path d="M7352 2708 c-18 -18 -14 -46 9 -58 11 -7 21 -10 22 -8 1 2 10 18 20
36 19 34 13 44 -9 15 -12 -17 -13 -16 -21 5 -7 18 -11 20 -21 10z"/>
<path d="M7560 2690 l-25 -8 27 -1 c15 -1 30 4 33 9 7 11 0 11 -35 0z"/>
<path d="M5032 2678 c-7 -7 -12 -23 -12 -36 0 -19 -4 -23 -20 -19 -22 6 -26
-3 -8 -21 8 -8 1 -21 -30 -53 -46 -45 -48 -50 -29 -79 10 -17 9 -22 -3 -30
-12 -8 -11 -11 7 -16 13 -4 20 -11 17 -16 -3 -5 -13 -7 -21 -4 -11 5 -13 2 -9
-10 3 -8 6 -22 6 -30 0 -11 9 -14 33 -12 25 2 31 7 29 23 -7 55 -4 106 8 120
10 12 10 18 0 30 -11 13 -8 15 19 15 21 0 31 5 31 15 0 8 -4 15 -10 15 -5 0
-10 5 -10 11 0 5 5 7 11 3 6 -3 41 -6 77 -6 37 0 72 -4 79 -10 7 -6 20 -7 30
-4 9 4 20 1 25 -6 5 -9 8 -7 8 7 0 26 -62 47 -114 38 -32 -5 -116 12 -116 24
0 2 7 14 16 27 16 26 5 43 -14 24z"/>
<path d="M7404 2595 c39 -36 60 -43 71 -25 11 17 -15 40 -46 40 -15 0 -31 5
-34 10 -3 6 -12 10 -18 10 -7 0 5 -16 27 -35z"/>
<path d="M4862 2588 c2 -6 10 -14 16 -16 7 -2 10 2 6 12 -7 18 -28 22 -22 4z"/>
<path d="M4960 2589 c0 -5 5 -7 10 -4 6 3 10 8 10 11 0 2 -4 4 -10 4 -5 0 -10
-5 -10 -11z"/>
<path d="M7590 2580 c0 -5 5 -10 11 -10 5 0 7 5 4 10 -3 6 -8 10 -11 10 -2 0
-4 -4 -4 -10z"/>
<path d="M7550 2547 c0 -8 -11 -18 -25 -21 l-26 -7 31 -25 c21 -18 30 -35 30
-55 0 -29 7 -33 45 -29 29 3 31 8 9 33 -28 32 -46 71 -42 92 2 10 -3 20 -9 22
-7 3 -13 -2 -13 -10z"/>
<path d="M8050 2504 c0 -8 5 -12 10 -9 6 3 10 10 10 16 0 5 -4 9 -10 9 -5 0
-10 -7 -10 -16z"/>
<path d="M7610 2501 c0 -5 7 -12 16 -15 24 -9 28 -7 14 9 -14 17 -30 20 -30 6z"/>
<path d="M7665 2470 c3 -5 8 -10 11 -10 2 0 4 5 4 10 0 6 -5 10 -11 10 -5 0
-7 -4 -4 -10z"/>
<path d="M8062 2458 c6 -18 28 -21 28 -4 0 9 -7 16 -16 16 -9 0 -14 -5 -12
-12z"/>
<path d="M7668 2380 c12 -11 24 -20 28 -20 4 0 -1 9 -11 20 -10 11 -23 20 -28
20 -6 0 -1 -9 11 -20z"/>
<path d="M7797 2339 c7 -7 15 -10 18 -7 3 3 -2 9 -12 12 -14 6 -15 5 -6 -5z"/>
<path d="M7841 2298 c-5 -14 -4 -32 2 -45 15 -34 26 -28 20 12 -5 30 -3 35 20
41 18 4 32 1 42 -10 18 -18 33 -20 54 -7 11 7 4 12 -25 20 -65 18 -103 14
-113 -11z"/>
<path d="M4895 2280 c-4 -16 -10 -30 -15 -30 -20 0 -19 -37 2 -79 26 -52 39
-64 52 -51 6 6 18 10 28 10 23 0 35 27 19 43 -10 9 -18 5 -36 -18 -13 -16 -28
-26 -32 -22 -4 5 -1 12 6 16 10 7 11 13 2 30 -6 11 -9 32 -5 47 5 20 11 24 29
20 35 -9 38 6 5 25 -17 11 -30 23 -30 29 0 23 -19 8 -25 -20z"/>
<path d="M2346 2235 c4 -8 11 -15 16 -15 6 0 5 6 -2 15 -7 8 -14 15 -16 15 -2
0 -1 -7 2 -15z"/>
<path d="M2648 2151 c-48 -18 -116 -110 -89 -119 6 -2 11 -10 11 -19 0 -12 3
-11 18 3 9 10 17 25 18 33 3 44 5 51 15 51 6 0 8 -11 4 -29 -5 -24 -3 -29 18
-35 15 -3 30 -20 42 -46 20 -44 39 -51 55 -21 15 29 12 55 -10 84 -11 14 -20
34 -20 44 0 27 -41 62 -62 54z"/>
<path d="M5920 2125 c0 -8 2 -15 4 -15 2 0 6 7 10 15 3 8 1 15 -4 15 -6 0 -10
-7 -10 -15z"/>
<path d="M9261 2118 c-1 -15 -9 -32 -18 -37 -16 -9 -15 -10 5 -11 28 0 38 23
24 53 -10 21 -11 21 -11 -5z"/>
<path d="M4989 2083 c5 -10 5 -26 0 -41 -6 -14 -5 -31 1 -43 14 -25 19 -24 12
3 -4 18 -2 20 16 16 24 -7 25 -4 16 30 -4 12 -13 22 -20 22 -8 0 -14 7 -14 15
0 8 -5 15 -10 15 -7 0 -8 -6 -1 -17z"/>
<path d="M5911 2084 c0 -11 3 -14 6 -6 3 7 2 16 -1 19 -3 4 -6 -2 -5 -13z"/>
<path d="M5610 2019 c0 -5 5 -7 10 -4 6 3 10 8 10 11 0 2 -4 4 -10 4 -5 0 -10
-5 -10 -11z"/>
<path d="M5665 2020 c3 -5 8 -10 11 -10 2 0 4 5 4 10 0 6 -5 10 -11 10 -5 0
-7 -4 -4 -10z"/>
<path d="M5033 1975 c-14 -31 2 -44 25 -21 14 14 14 18 2 31 -13 12 -16 11
-27 -10z"/>
<path d="M2650 1910 c0 -5 9 -10 19 -10 11 0 23 5 26 10 4 6 -5 10 -19 10 -14
0 -26 -4 -26 -10z"/>
<path d="M7695 1800 c-8 -24 1 -40 22 -40 12 0 13 3 4 14 -6 7 -9 21 -5 30 3
9 1 16 -4 16 -6 0 -13 -9 -17 -20z"/>
<path d="M2668 1767 c-15 -12 -26 -30 -25 -39 4 -21 17 -36 17 -19 0 7 8 23
18 35 17 22 18 22 47 4 18 -10 32 -29 35 -44 7 -37 28 -42 36 -9 5 21 0 33
-27 61 -38 40 -63 43 -101 11z"/>
<path d="M7247 1714 c16 -25 16 -27 -2 -40 -19 -14 -9 -19 19 -8 21 8 20 37
-2 57 -28 25 -35 20 -15 -9z"/>
<path d="M3392 1484 c-64 -32 -97 -73 -112 -138 -22 -99 26 -193 118 -232 51
-22 152 -15 189 12 47 35 82 95 85 144 l3 45 -87 3 -88 3 0 -31 c0 -29 1 -30
51 -30 48 0 50 -1 43 -22 -25 -85 -161 -103 -214 -29 -43 62 -32 168 22 203
42 28 99 31 142 8 l40 -20 23 22 c13 12 23 25 23 29 0 4 -23 19 -52 33 -67 33
-119 33 -186 0z"/>
<path d="M2992 1483 c-5 -10 -15 -36 -22 -58 -7 -22 -18 -53 -26 -70 -22 -52
-94 -241 -94 -249 0 -4 16 -6 36 -4 33 3 38 7 54 48 l18 45 86 3 87 3 21 -51
c19 -46 23 -50 54 -50 42 0 43 12 10 89 -46 106 -116 287 -116 299 0 20 -97
16 -108 -5z m84 -130 c36 -88 34 -93 -31 -93 -63 0 -64 1 -35 80 12 30 23 61
26 69 6 19 14 10 40 -56z"/>
<path d="M3760 1351 c0 -91 4 -152 10 -156 6 -4 8 -11 5 -16 -7 -11 42 -58 73
-70 41 -16 130 -10 171 10 68 35 76 56 79 229 l4 153 -39 -3 -38 -3 -3 -125
c-1 -69 -5 -135 -7 -147 -9 -39 -33 -53 -90 -53 -46 0 -56 4 -74 26 -19 24
-21 40 -21 165 l0 139 -35 0 -35 0 0 -149z"/>
<path d="M4290 1478 c-15 -36 -131 -341 -137 -361 -5 -16 0 -18 33 -15 36 3
40 6 55 48 l17 45 87 0 87 0 18 -45 c16 -41 21 -45 54 -48 26 -2 36 1 36 11 0
8 -19 64 -43 123 -24 60 -57 144 -73 187 l-29 77 -48 0 c-40 0 -49 -4 -57 -22z
m94 -142 c14 -37 26 -70 26 -72 0 -2 -27 -4 -60 -4 -33 0 -60 4 -60 10 0 5 9
35 21 67 11 32 23 64 25 72 7 22 20 3 48 -73z"/>
<path d="M4752 1303 l3 -198 110 0 c130 1 172 17 219 83 26 37 30 51 30 116 1
68 -1 77 -30 113 -49 62 -91 77 -222 81 l-112 4 2 -199z m222 117 c34 -13 66
-66 66 -111 0 -96 -47 -139 -154 -139 l-66 0 0 130 0 130 64 0 c36 0 76 -4 90
-10z"/>
<path d="M5203 1303 l2 -198 145 0 145 0 0 30 0 30 -113 3 -113 3 3 47 3 47
103 3 102 3 0 29 c0 17 -6 30 -12 31 -7 0 -53 2 -103 2 l-90 2 -3 48 -3 47
110 0 111 0 0 35 0 35 -144 0 -145 0 2 -197z"/>
<path d="M5734 1303 l1 -198 37 -3 37 -3 3 153 3 153 33 -90 c70 -188 62 -175
107 -175 40 0 41 1 59 53 10 28 33 88 50 132 l31 80 5 -150 5 -150 31 -3 c27
-3 32 1 37 25 4 22 3 310 -2 361 -1 8 -19 12 -54 12 l-54 0 -52 -136 c-29 -75
-56 -132 -61 -128 -4 5 -26 61 -50 124 -23 63 -45 121 -47 128 -3 8 -26 12
-63 12 l-58 0 2 -197z"/>
<path d="M6384 1473 c-4 -16 -10 -32 -13 -38 -4 -5 -19 -41 -34 -80 -23 -61
-80 -207 -94 -242 -4 -9 7 -13 34 -13 38 0 40 2 57 50 l18 50 88 0 88 0 18
-50 c17 -48 19 -50 56 -50 21 0 38 2 38 5 0 3 -22 60 -49 128 -27 67 -61 155
-76 195 l-28 72 -48 0 c-45 0 -49 -2 -55 -27z m90 -127 c14 -41 26 -77 26 -80
0 -3 -27 -6 -60 -6 -33 0 -60 3 -60 8 0 16 53 152 60 152 4 0 19 -33 34 -74z"/>
<path d="M6710 1299 l0 -200 33 3 32 3 3 128 c1 70 7 127 11 127 5 0 33 -33
62 -72 64 -87 130 -170 144 -180 6 -4 22 -8 38 -8 l27 0 0 200 0 200 -35 0
-35 0 0 -130 c0 -73 -4 -130 -9 -130 -5 0 -49 52 -98 116 -48 64 -93 123 -99
130 -6 8 -25 14 -43 14 l-31 0 0 -201z"/>
<path d="M7265 1464 c-8 -20 -15 -39 -15 -41 0 -3 -21 -57 -46 -121 -59 -151
-74 -191 -74 -198 0 -3 16 -4 36 -2 33 3 38 7 54 48 l18 45 89 3 89 3 13 -38
c19 -54 29 -63 67 -63 l33 0 -27 73 c-15 39 -50 129 -77 199 l-50 128 -47 0
c-45 0 -48 -2 -63 -36z m93 -113 c34 -84 32 -91 -34 -91 -55 0 -56 0 -50 25
14 57 49 136 55 128 4 -4 17 -32 29 -62z"/>
<path d="M7600 1498 c-1 -6 -2 -374 -1 -386 1 -9 12 -12 34 -10 l32 3 2 130
c1 72 4 130 7 130 5 0 41 -45 167 -213 36 -47 44 -53 72 -50 l32 3 3 198 2
197 -35 0 -35 0 0 -130 c0 -98 -3 -130 -12 -129 -7 0 -56 58 -108 129 -88 120
-97 130 -127 130 -18 0 -33 -1 -33 -2z"/>
<path d="M8020 1465 l0 -35 60 0 60 0 2 -162 3 -163 35 0 35 0 1 130 c1 72 2
145 2 163 l2 32 60 0 60 0 0 35 0 35 -160 0 -160 0 0 -35z"/>
<path d="M8410 1483 c0 -10 -2 -99 -3 -198 l-2 -180 38 -3 37 -3 0 200 0 201
-35 0 c-27 0 -35 -4 -35 -17z"/>
<path d="M8690 1478 c-5 -13 -25 -66 -45 -118 -20 -52 -47 -120 -60 -150 -13
-30 -27 -68 -31 -83 -6 -28 -6 -28 31 -25 34 3 39 7 54 48 l17 45 89 0 89 0
16 -45 c14 -42 18 -45 54 -48 47 -4 50 -18 -42 218 l-68 175 -47 3 c-41 3 -48
0 -57 -20z m110 -205 c0 -9 -17 -13 -55 -13 -62 0 -68 10 -41 72 8 18 20 48
27 67 l12 34 29 -74 c15 -41 28 -79 28 -86z"/>
<path d="M9012 1303 l3 -198 140 0 140 0 3 32 3 32 -108 3 -108 3 -3 163 -2
162 -35 0 -35 0 2 -197z"/>
</g>
</svg>
